<?xml version="1.0" encoding="UTF-8" standalone="no"?>
<svg
   xmlns:osb="http://www.openswatchbook.org/uri/2009/osb"
   xmlns:dc="http://purl.org/dc/elements/1.1/"
   xmlns:cc="http://creativecommons.org/ns#"
   xmlns:rdf="http://www.w3.org/1999/02/22-rdf-syntax-ns#"
   xmlns:svg="http://www.w3.org/2000/svg"
   xmlns="http://www.w3.org/2000/svg"
   xmlns:xlink="http://www.w3.org/1999/xlink"
   xmlns:sodipodi="http://sodipodi.sourceforge.net/DTD/sodipodi-0.dtd"
   xmlns:inkscape="http://www.inkscape.org/namespaces/inkscape"
   sodipodi:docname="neuron-grey-prod.svg"
   inkscape:version="1.0beta2 (2b71d25, 2019-12-03)"
   id="svg8"
   version="1.1"
   viewBox="0 0 26.458332 26.458334"
   height="100"
   width="100">
  <style
     id="style1340">.nucleus {  }
.axon-terminal {  }
.axon-seg {  }
.soma {  }
.dendrite {  }
.dendrite {  }
</style>
  <defs
     id="defs2">
    <inkscape:path-effect
       only_selected="false"
       apply_with_weight="true"
       apply_no_weight="true"
       helper_size="0"
       steps="2"
       weight="33.333333"
       lpeversion="1"
       is_visible="true"
       id="path-effect897"
       effect="bspline" />
    <inkscape:path-effect
       effect="bspline"
       id="path-effect1085"
       is_visible="true"
       lpeversion="1"
       weight="33.333333"
       steps="2"
       helper_size="0"
       apply_no_weight="true"
       apply_with_weight="true"
       only_selected="false" />
    <inkscape:path-effect
       effect="bspline"
       id="path-effect868"
       is_visible="true"
       lpeversion="1"
       weight="33.333333"
       steps="2"
       helper_size="0"
       apply_no_weight="true"
       apply_with_weight="true"
       only_selected="false" />
    <linearGradient
       inkscape:collect="always"
       id="linearGradient858">
      <stop
         style="stop-color:#f2f2f2"
         offset="0"
         id="stop854" />
      <stop
         id="stop862"
         offset="0.05"
         style="stop-color:#f2f2f2" />
      <stop
         style="stop-color:#e6e6e6"
         offset="0.52499998"
         id="stop864" />
      <stop
         style="stop-color:#b3b3b3"
         offset="1"
         id="stop856" />
    </linearGradient>
    <linearGradient
       id="linearGradient903"
       osb:paint="gradient">
      <stop
         id="stop948"
         offset="0"
         style="stop-color:#f2f2f2" />
      <stop
         id="stop950"
         offset="1"
         style="stop-color:#f2f2f2;stop-opacity:0" />
    </linearGradient>
    <linearGradient
       osb:paint="gradient"
       id="linearGradient903-5">
      <stop
         style="stop-color:#f2f2f2"
         offset="0"
         id="stop907" />
      <stop
         style="stop-color:#f2f2f2;stop-opacity:0"
         offset="1"
         id="stop909" />
    </linearGradient>
    <radialGradient
       inkscape:collect="always"
       xlink:href="#linearGradient858"
       id="radialGradient860"
       cx="42.760979"
       cy="39.086208"
       fx="42.760979"
       fy="39.086208"
       r="23.05084"
       gradientUnits="userSpaceOnUse"
       gradientTransform="matrix(0.04943639,0,0,0.04943639,1.3549757,7.5326771)" />
    <inkscape:path-effect
       only_selected="false"
       apply_with_weight="true"
       apply_no_weight="true"
       helper_size="0"
       steps="2"
       weight="33.333333"
       lpeversion="1"
       is_visible="true"
       id="path-effect872-2"
       effect="bspline" />
    <inkscape:path-effect
       effect="bspline"
       id="path-effect897-9"
       is_visible="true"
       lpeversion="1"
       weight="33.333333"
       steps="2"
       helper_size="0"
       apply_no_weight="true"
       apply_with_weight="true"
       only_selected="false" />
    <inkscape:path-effect
       effect="bspline"
       id="path-effect897-3"
       is_visible="true"
       lpeversion="1"
       weight="33.333333"
       steps="2"
       helper_size="0"
       apply_no_weight="true"
       apply_with_weight="true"
       only_selected="false" />
    <inkscape:path-effect
       effect="bspline"
       id="path-effect897-32"
       is_visible="true"
       lpeversion="1"
       weight="33.333333"
       steps="2"
       helper_size="0"
       apply_no_weight="true"
       apply_with_weight="true"
       only_selected="false" />
    <inkscape:path-effect
       effect="bspline"
       id="path-effect897-2"
       is_visible="true"
       lpeversion="1"
       weight="33.333333"
       steps="2"
       helper_size="0"
       apply_no_weight="true"
       apply_with_weight="true"
       only_selected="false" />
    <inkscape:path-effect
       only_selected="false"
       apply_with_weight="true"
       apply_no_weight="true"
       helper_size="0"
       steps="2"
       weight="33.333333"
       lpeversion="1"
       is_visible="true"
       id="path-effect897-2-4"
       effect="bspline" />
  </defs>
  <sodipodi:namedview
     units="px"
     inkscape:window-maximized="0"
     inkscape:window-y="23"
     inkscape:window-x="118"
     inkscape:window-height="880"
     inkscape:window-width="1303"
     showgrid="false"
     inkscape:document-rotation="0"
     inkscape:current-layer="layer1"
     inkscape:document-units="mm"
     inkscape:cy="60.778524"
     inkscape:cx="84.770934"
     inkscape:zoom="13.323596"
     inkscape:pageshadow="2"
     inkscape:pageopacity="0.0"
     borderopacity="1.0"
     bordercolor="#666666"
     pagecolor="#ffffff"
     id="base"
     inkscape:snap-global="false"
     inkscape:snap-bbox="false" />
  <metadata
     id="metadata5">
    <rdf:RDF>
      <cc:Work
         rdf:about="">
        <dc:format>image/svg+xml</dc:format>
        <dc:type
           rdf:resource="http://purl.org/dc/dcmitype/StillImage" />
        <dc:title />
      </cc:Work>
    </rdf:RDF>
  </metadata>
  <g
     id="layer1"
     inkscape:groupmode="layer"
     inkscape:label="Layer 1">
    <path
       class="soma"
       style="fill:#808080;stroke:#000000;stroke-width:0.26458300000000001px"
       d="M 88.52859,92.871503 C 80.73362,87.749094 72.9391,82.626981 65.745286,83.210235 58.551472,83.79349 51.959495,90.082485 45.367402,96.371589 44.810618,87.574408 44.253864,78.777683 39.476587,73.962556 34.69931,69.14743 25.701356,68.314796 16.703508,67.482171 25.055262,62.471119 33.406927,57.46012 33.796778,51.224174 c 0.38985,-6.235946 -7.182522,-13.69696 -14.754779,-21.15786 11.692455,2.449847 23.384982,4.89971 29.84363,2.449888 6.458648,-2.449822 7.683584,-9.799432 8.908508,-17.148975 5.011052,8.46311 10.022187,16.926362 16.091165,17.92843 6.068978,1.002068 13.195652,-5.456479 20.322483,-11.915169 -4.387441,10.066705 -8.409299,19.294604 -4.910658,25.38672 3.498641,6.092117 13.440593,7.174044 24.286723,8.354368 -11.23307,3.633068 -22.4656,7.265963 -26.641647,13.558012 -4.176046,6.29205 -1.294929,15.241674 1.586387,24.191915 z"
       id="soma"
       inkscape:connector-curvature="0"
       inkscape:path-effect="#path-effect868"
       inkscape:original-d="m 88.52859,92.871503 c 0,0 -15.589532,-10.244459 -23.38491,-15.367227 -6.591949,6.289485 -19.776278,18.867313 -19.776278,18.867313 0,0 -1.113292,-17.593922 -1.670351,-26.391544 -8.997763,-0.832377 -26.993543,-2.497874 -26.993543,-2.497874 0,0 16.703606,-10.02174 25.055262,-15.033156 C 34.186626,44.98823 19.041999,30.066314 19.041999,30.066314 c 0,0 23.38494,4.89991 35.077365,7.349542 1.225214,-7.349426 3.674773,-22.048629 3.674773,-22.048629 0,0 10.022267,16.926314 15.033155,25.389331 7.127239,-6.458556 21.380493,-19.37607 21.380493,-19.37607 0,0 -8.40898,19.294743 -13.162323,30.200116 11.750281,1.278953 32.538388,3.540972 32.538388,3.540972 0,0 -22.465498,7.266279 -33.699208,10.899205 2.881677,8.950805 8.643948,26.850722 8.643948,26.850722 z"
       sodipodi:nodetypes="ccccccccccccccc"
       transform="matrix(0.07071217,-0.02777108,0.02777108,0.07071217,1.0310591,4.8032815)" />
    <path
       inkscape:connector-curvature="0"
       id="axon-main"
       d="M 79.394653,102.54095 C 75.062389,98.78097 71.543864,94.424506 68.54807,87.539743 65.552277,80.65498 63.079656,71.242638 59.354682,63.843717 55.629709,56.444796 50.652308,51.059845 45.67506,45.67506 c 0,0 -3.289009,2.460388 -3.289009,2.460388 4.773801,5.321111 9.547756,10.642393 13.487619,17.845793 3.939862,7.2034 7.045642,16.288394 10.217277,23.112325 3.171634,6.823931 6.408633,11.385994 10.370262,15.017614 3.96163,3.63163 8.647397,6.33256 10.980227,7.55143 2.332829,1.21887 2.312905,0.95552 3.667784,1.39771 1.354879,0.44219 4.084212,1.59004 5.403853,2.00806 1.319641,0.41803 1.229625,0.10571 1.139697,-0.2063 -8.780204,-5.39778 -13.925854,-8.56116 -18.258117,-12.32113 z"
       style="fill:#666666;stroke-width:0.26458300000000001px"
       transform="matrix(0.14086237,-0.04354704,0.04354704,0.14086237,-0.3792902,3.09868)"
       sodipodi:nodetypes="ccccccccccccc"
       inkscape:original-d="M 78.580749,103.13723 C 75.06242,98.780945 71.543895,94.424481 68.024965,90.067578 65.552459,80.654932 63.079838,71.24259 60.606803,61.829415 55.62972,56.444786 45.67506,45.67506 45.67506,45.67506 l -3.289009,2.460388 c 0,0 9.547771,10.64238 14.321404,15.963333 3.106233,9.085807 6.212013,18.170801 9.317717,27.256079 3.23746,4.562601 6.474459,9.12466 9.711388,13.68673 4.686229,2.70131 9.372001,5.40223 14.057607,8.10296 -0.01966,-0.26309 -0.03958,-0.52644 -0.05977,-0.79005 2.729646,1.14814 5.458979,2.29599 8.188158,3.44362 -0.08967,-0.31176 -0.269785,-0.93604 -0.269785,-0.93604 -8.853459,-5.27862 -13.962504,-8.50154 -19.072021,-11.72485 z"
       inkscape:path-effect="#path-effect872-2" />
    <path
       id="telodendron"
       style="color:#000000;fill:#808080;stroke-width:0.29488;stroke-linecap:round"
       d="m 20.93675,11.737532 c -0.306227,0.270357 -0.281596,0.769054 -0.09409,1.105009 -0.179392,0.11411 -0.148914,0.684889 -0.41788,0.310192 -0.249822,-0.203752 -0.630282,-0.275994 -0.577632,-0.670155 -0.397576,-0.223477 -0.264546,0.72869 0.149179,0.726405 0.334907,0.165964 0.707895,0.447084 0.601773,0.871582 0.06316,0.426401 -0.189487,0.809416 -0.5062,1.065956 -0.430373,0.178768 -0.927771,0.04 -1.3716,-0.04161 -0.227591,0.01222 -0.803135,-0.245799 -0.82644,0.0273 0.4174,0.182309 0.894595,0.148104 1.317013,0.308209 0.384843,0.0076 0.858927,0.329344 0.607554,0.759953 -0.171289,0.450129 -0.117764,0.971006 -0.363785,1.388704 -0.4202,0.523326 -1.058323,0.991396 -1.056314,1.729975 -0.01852,0.23641 0.156049,0.928504 0.449325,0.707797 -0.07392,-0.395231 -0.279298,-0.815217 -0.04109,-1.217128 0.182993,0.26718 0.294155,0.82994 0.711255,0.947036 0.455888,-0.164402 -0.32383,-0.475362 -0.302927,-0.785935 -0.285582,-0.365753 -0.01616,-0.722822 0.270629,-0.967503 0.164855,-0.207192 0.338261,0.363859 0.52778,0.442718 0.353943,0.476819 0.170901,1.137141 0.447932,1.643412 0.07294,0.270191 0.93779,0.522253 0.577912,0.07127 -0.469081,-0.122035 -0.441186,-0.623819 -0.488358,-1.009626 -0.04781,-0.433643 -0.20749,-0.864074 -0.550912,-1.150314 -0.473181,-0.323425 0.01281,-0.824232 -0.01,-1.263317 0.137109,-0.279887 0.08994,-0.801022 0.237994,-0.970161 0.709982,0.697128 0.707354,1.769866 1.05429,2.647803 0.179114,0.357412 0.282662,0.854633 0.668078,1.037014 0.311928,-0.252616 -0.293785,-0.604278 -0.310687,-0.941096 -0.40914,-0.916544 -0.393698,-2.018826 -1.076001,-2.808621 -0.388403,-0.35402 0.3858,-0.04993 0.602987,-0.09451 0.491689,-0.02966 0.808891,0.385269 1.192004,0.616046 0.362867,0.233054 0.108685,0.742924 0.120323,1.098026 -0.0949,0.481223 -0.09767,1.041296 0.279297,1.409978 0.168461,0.338533 0.930781,-0.01352 0.449798,-0.176561 -0.458071,0.0982 -0.539475,-0.611737 -0.473413,-0.936256 0.07315,-0.268287 0.0814,-0.553902 0.176006,-0.735035 0.1858,0.481503 0.184343,0.81789 0.51965,1.304133 0.13554,0.228568 0.719358,0.186829 0.369427,-0.109976 -0.470063,-0.21059 -0.296258,-0.876899 -0.488306,-1.27374 0.264936,-0.06559 0.541391,-0.01117 0.837619,0.110286 0.356151,0.04186 0.262532,0.814709 0.59965,0.571871 0.118631,-0.436295 -0.337497,-0.845503 -0.737889,-0.921962 -0.850127,-0.06488 -1.055925,-0.373261 -1.055925,-0.373261 -0.242518,-0.192492 -0.744841,-0.477681 -1.128597,-0.690677 -0.250154,-0.140708 0.418466,-0.169224 0.553179,-0.301301 0.39839,-0.151675 0.594538,-0.388045 1.011296,-0.285678 0.383486,0.09419 0.8767,0.564521 1.407086,0.549927 0.375244,0.03236 0.948686,-0.132414 0.983547,-0.562771 -0.279711,-0.209348 -0.567233,0.459005 -0.958803,0.271091 -0.488,-0.0092 -0.636182,-0.278899 -0.913063,-0.48377 -0.137084,-0.101433 -0.171205,-0.185691 -0.361253,-0.362275 0.266484,-0.531073 0.846053,-0.643536 1.378715,-0.545133 0.215148,-0.0018 0.884538,0.445325 0.676492,-0.02028 -0.334882,-0.297834 -0.828495,-0.296653 -1.253202,-0.308119 -0.265625,-0.07213 -0.310372,0.01554 -0.609269,-0.05129 0.306499,-0.602164 0.665086,-0.656707 1.135565,-0.797403 0.435732,-0.03357 0.308996,-0.598647 -0.09445,-0.397497 -0.365838,0.213013 -0.814865,0.299081 -1.123724,0.597931 -0.264904,0.363409 -0.277665,0.851595 -0.538457,1.217756 -0.09199,0.486216 -0.477431,0.742771 -0.902218,0.896128 -0.534608,0.247051 -1.139395,0.291605 -1.719888,0.314759 0.128339,-0.254743 0.470526,-0.715305 0.403015,-1.14296 0.02615,-0.400421 -0.157809,-0.961111 0.313053,-1.165485 0.200011,-0.354005 0.919088,0.25939 0.834013,-0.219681 -0.269097,-0.27128 -0.711353,-0.20109 -0.979734,-0.06737 -0.284336,-0.283216 0.222026,-0.710681 -0.131426,-0.899814 z"
       inkscape:connector-curvature="0"
       sodipodi:nodetypes="cccccccccccccccccccccccccccccccccccccccccccccscccaccccccccccccccccc" />
    <ellipse
       style="fill:#bcbcbc;fill-opacity:0.615385;stroke:#000000;stroke-width:0.029488;stroke-linecap:round"
       id="axon-seg-1"
       cx="-0.28997168"
       cy="13.449733"
       rx="0.68800229"
       ry="0.95828891"
       transform="rotate(-48.657014)"
       class="axon-seg" />
    <ellipse
       transform="rotate(-48.657014)"
       ry="0.65592718"
       rx="0.46314541"
       cy="13.33272"
       cx="-0.021720232"
       id="path954-0"
       style="fill:#f2f2f2;fill-opacity:0.348178;stroke-width:0.0198506;stroke-linecap:round" />
    <ellipse
       class="axon-seg"
       transform="rotate(-43.681207)"
       ry="0.95828891"
       rx="0.68800229"
       cy="15.284744"
       cx="0.94544327"
       id="axon-seg-2"
       style="fill:#b3b3b3;fill-opacity:0.360324;stroke:#000000;stroke-width:0.029488;stroke-linecap:round" />
    <ellipse
       style="fill:#bcbcbc;fill-opacity:0.615385;stroke-width:0.0198506;stroke-linecap:round"
       id="path954-0-5"
       cx="1.2136947"
       cy="15.167731"
       rx="0.46314541"
       ry="0.65592718"
       transform="rotate(-43.681207)" />
    <ellipse
       class="axon-seg"
       transform="rotate(-36.007198)"
       ry="0.85764557"
       rx="0.6447857"
       cy="16.831495"
       cx="3.0283167"
       id="axon-seg-3"
       style="fill:#bcbcbc;fill-opacity:0.615385;stroke:#000000;stroke-width:0.0276358;stroke-linecap:round" />
    <ellipse
       style="fill:#f2f2f2;fill-opacity:0.348178;stroke-width:0.0186037;stroke-linecap:round"
       id="path954-0-6"
       cx="3.2797184"
       cy="16.72183"
       rx="0.43405315"
       ry="0.61472535"
       transform="rotate(-36.007198)" />
    <ellipse
       class="axon-seg"
       style="fill:#bcbcbc;fill-opacity:0.615385;stroke:#000000;stroke-width:0.0276358;stroke-linecap:round"
       id="axon-seg-4"
       cx="-0.42667776"
       cy="18.764515"
       rx="0.6447857"
       ry="0.8980943"
       transform="rotate(-46.998482)" />
    <ellipse
       transform="rotate(-46.998482)"
       ry="0.61472535"
       rx="0.43405315"
       cy="18.654856"
       cx="-0.17527658"
       id="path954-0-6-3"
       style="fill:#f2f2f2;fill-opacity:0.348178;stroke-width:0.0186037;stroke-linecap:round" />
    <ellipse
       class="axon-seg"
       transform="rotate(-58.941956)"
       ry="0.7955482"
       rx="0.57116276"
       cy="19.917263"
       cx="-4.4453158"
       id="axon-seg-6"
       style="fill:#bcbcbc;fill-opacity:0.615385;stroke:#000000;stroke-width:0.0244803;stroke-linecap:round" />
    <ellipse
       style="fill:#f2f2f2;fill-opacity:0.348178;stroke-width:0.0164794;stroke-linecap:round"
       id="path954-0-6-3-4"
       cx="-4.2226191"
       cy="19.820122"
       rx="0.38449213"
       ry="0.5445348"
       transform="rotate(-58.941956)" />
    <ellipse
       style="fill:#bcbcbc;fill-opacity:0.615385;stroke:#000000;stroke-width:0.0217555;stroke-linecap:round"
       id="axon-seg-7"
       cx="-9.4434652"
       cy="19.683411"
       rx="0.50759351"
       ry="0.70700538"
       transform="rotate(-73.459573)"
       inkscape:transform-center-x="0.085910549"
       inkscape:transform-center-y="0.0350879"
       class="axon-seg" />
    <ellipse
       transform="rotate(-73.459573)"
       ry="0.48392919"
       rx="0.34169891"
       cy="19.597078"
       cx="-9.2455549"
       id="path954-0-6-3-4-4"
       style="fill:#f2f2f2;fill-opacity:0.348178;stroke-width:0.0146453;stroke-linecap:round"
       inkscape:transform-center-x="0.11232692"
       inkscape:transform-center-y="-0.17921081" />
    <ellipse
       class="axon-seg"
       transform="rotate(-78.350366)"
       ry="0.68615657"
       rx="0.49262512"
       cy="20.202665"
       cx="-11.140789"
       id="axon-seg-8"
       style="fill:#bcbcbc;fill-opacity:0.615385;stroke:#000000;stroke-width:0.0211142;stroke-linecap:round" />
    <path
       id="path954-0-6-3-4-4-2"
       style="fill:#f2f2f2;fill-opacity:0.348178;stroke-width:0.0142135;stroke-linecap:round"
       d="m 17.560578,14.460921 c 0.225181,0.02782 0.507086,0.277556 0.351915,0.512459 -0.239337,0.284623 -0.833685,0.149859 -0.883696,-0.231942 0.0057,-0.255906 0.329438,-0.328874 0.531781,-0.280517 z"
       inkscape:connector-curvature="0" />
    <path
       style="fill:#999999;stroke-width:0.26458300000000001px"
       d="m 51.37658,46.434743 c -1.087756,1.05667 -2.641796,1.926933 -4.630904,2.36209 -1.989107,0.435156 -4.413362,0.435156 -6.930915,-0.49718 -2.517553,-0.932336 -5.128287,-2.797147 -6.589218,-4.879544 -1.460931,-2.082397 -1.771734,-4.38233 -1.678532,-6.371579 0.0932,-1.98925 0.590485,-3.667579 1.802715,-5.128496 1.21223,-1.460917 3.1392,-2.704124 5.159586,-3.201376 2.020386,-0.497251 4.133838,-0.24861 5.998715,0.155484 1.864877,0.404094 3.481047,0.963538 4.444441,1.77175 0.963395,0.808213 1.274198,1.864941 2.082395,3.077084 0.808197,1.212142 2.113564,2.57967 2.64179,4.133702 0.528226,1.554033 0.279584,3.294523 -0.155564,4.786356 -0.435149,1.491833 -1.056752,2.73504 -2.144509,3.791709 z"
       id="path1083"
       inkscape:connector-curvature="0"
       inkscape:path-effect="#path-effect1085"
       inkscape:original-d="m 51.842775,46.621199 c -1.553776,0.870527 -3.107817,1.740789 -4.662119,2.61079 -2.424087,2.64e-4 -4.848342,2.64e-4 -7.272909,0 -2.610575,-1.864622 -5.221309,-3.729432 -7.83236,-5.594546 -0.310552,-2.299761 -0.621353,-4.599694 -0.932426,-6.899937 0.497567,-1.678133 0.994852,-3.356461 1.491879,-5.035089 1.927313,-1.242994 3.854284,-2.4862 5.78103,-3.729696 2.113801,0.248914 4.227253,0.497557 6.340483,0.745939 1.616498,0.559729 3.232668,1.119172 4.848603,1.678364 0.311078,1.057031 0.621882,2.113759 0.932426,3.17024 1.305684,1.367848 2.611051,2.735376 3.91618,4.102666 -0.248386,1.740823 -0.497028,3.481313 -0.74594,5.221573 -0.621363,1.243523 -1.242968,2.486729 -1.864847,3.729696 z"
       transform="matrix(0.14086237,-0.04354704,0.04354704,0.14086237,-0.73544516,3.5884829)"
       class="nucleus" />
    <circle
       style="fill:url(#radialGradient860);stroke-width:0.01308"
       id="path852"
       cx="3.4689243"
       cy="9.4649582"
       transform="rotate(-24.076514)" />
    <path
       class="dendrite"
       sodipodi:nodetypes="cccccccccccccccccccccccccccccccccccccccccccccccccccccccccccccccccccc"
       transform="matrix(0.08820586,0.00821584,-0.00922733,0.07853673,5.5222913,1.4013707)"
       inkscape:original-d="m 54.345174,55.370934 c 0.962486,-1.047017 1.924501,-2.094499 2.886044,-3.142444 1.334352,2.65e-4 2.668387,2.65e-4 4.002183,0 0.06697,0.934125 0.13367,1.86795 0.20011,2.801527 -0.333259,0.600605 -0.666766,1.20092 -1.000546,1.800982 2.65e-4,0.800719 2.65e-4,1.601139 0,2.401311 0.467196,-0.533371 0.934106,-1.066985 1.400765,-1.600872 0.133673,-1.40053 0.267076,-2.801266 0.400217,-4.202293 0.667308,-0.266554 1.334325,-0.53336 2.001091,-0.800438 0.5339,0.267083 1.067515,0.533889 1.600875,0.800438 0.600604,0.667309 1.20092,1.334326 1.800982,2.001092 0.667308,0.734012 1.334325,1.467731 2.001091,2.201201 -0.133144,-0.733486 -0.266547,-1.467205 -0.400219,-2.201201 -0.266552,-0.333259 -0.533358,-0.666766 -0.800436,-1.000546 2.134806,-0.133146 6.403493,-0.400219 6.403493,-0.400219 0,0 -0.666766,-0.533361 -1.000546,-0.800436 -2.000866,-0.06644 -4.001918,-0.133141 -6.003274,-0.20011 -1.200414,-0.600075 -2.401046,-1.200391 -3.601966,-1.800982 -0.533371,-1.000302 -1.066982,-2.000826 -1.600872,-3.001637 1.734579,-0.933598 3.468823,-1.867421 5.202838,-2.80153 1.013633,-0.101635 2.026982,-0.203669 3.039821,-0.30608 1.955738,0.349366 3.911462,0.698407 5.866375,1.046983 0.802891,-0.187563 1.605562,-0.375554 2.407725,-0.563905 2.149708,-0.0951 4.2994,-0.190596 6.448213,-0.286464 0.883351,1.215496 1.766511,2.430867 2.649163,3.645675 1.657328,-0.523328 3.313475,-1.046794 4.970948,-1.571189 -0.268639,-0.200189 -0.537351,-0.400538 -0.806638,-0.60142 -1.467056,0.122074 -2.933977,0.243715 -4.4019,0.365018 -0.65505,-1.010021 -1.309795,-2.019372 -1.965975,-3.030736 -0.144225,-0.201822 -0.288725,-0.403884 -0.433508,-0.606197 1.093902,-0.716311 2.189071,-1.434092 3.282859,-2.151607 1.173533,0.540891 2.346839,1.081465 3.519829,1.621679 0.06791,-0.06617 0.135426,-0.132716 0.202581,-0.199673 -1.023821,-0.871026 -2.047494,-1.741989 -3.072153,-2.613857 -1.439892,0.3153 -2.879603,0.630087 -4.319868,0.944522 -0.910347,1.114827 -1.821091,2.229284 -2.732324,3.343481 -1.990071,0.03371 -3.979945,0.06702 -5.970865,0.09996 -1.336199,-0.211925 -2.672333,-0.424168 -4.009243,-0.636864 -0.223922,-0.09972 -0.448204,-0.199819 -0.672857,-0.300303 -1.934162,-0.199848 -3.868513,-0.399955 -5.803165,-0.600327 -1.400529,0.867421 -2.801265,1.734542 -4.202292,2.601418 -0.466667,-0.333256 -0.93358,-0.666766 -1.400765,-1.000546 1.644895,-2.23957 3.289255,-4.479521 4.933177,-6.719987 2.691824,-0.360981 5.382901,-0.722373 8.073917,-1.084268 0.867423,-1.000303 1.734545,-2.000827 2.60142,-3.00164 0.400492,-0.06644 0.800701,-0.133141 1.200656,-0.200107 1.000828,0.06697 2.001356,0.13367 3.001637,0.200107 0.200376,2.65e-4 0.600326,0 0.600326,0 l -2.401308,-1.400762 5.002728,-0.600329 c 0,0 -1.333796,-0.933577 -2.001091,-1.400763 -1.533938,-0.06644 -3.068077,-0.133141 -4.602512,-0.200109 -1.067006,1.334351 -2.134232,2.668386 -3.201746,4.002182 -1.800755,0.800717 -3.601701,1.601139 -5.402948,2.401311 -0.956771,0.09508 -1.913509,0.189663 -2.871078,0.283834 -1.110343,1.239966 -2.221088,2.479391 -3.332304,3.718349 -1.122569,0.754798 -2.245438,1.509023 -3.369028,2.262959 -0.09941,0.524565 -0.199251,1.048413 -0.299662,1.57223 -0.733503,-0.399914 -1.466911,-0.799955 -2.2012,-1.200655 0.334034,-1.000191 0.667477,-2.000521 1.000545,-3.001638 -0.800048,-2.267743 -1.600333,-4.535218 -2.401309,-6.803711 0.46744,-1.133578 0.934321,-2.267432 1.400764,-3.401856 -0.866671,1.334537 -1.733793,2.668571 -2.601419,4.002184 0.667517,1.93483 1.334467,3.868983 2.001091,5.803165 -0.168153,1.07218 -0.336706,2.143347 -0.505863,3.214804 0.126926,1.379639 0.253266,2.75777 0.379205,4.136417 -1.190987,1.157277 -2.381873,2.313537 -3.573684,3.469774 -0.951485,0.14166 -1.903366,0.282861 -2.855698,0.423611"
       inkscape:path-effect="#path-effect897"
       inkscape:connector-curvature="0"
       id="dendrite-1"
       d="m 54.345174,55.370934 c 0.961999,-1.047464 1.924014,-2.094946 3.072205,-2.618695 1.148191,-0.523749 2.482226,-0.523749 3.182486,-0.05668 0.700261,0.467072 0.766963,1.400896 0.633518,2.167892 -0.133445,0.766995 -0.466953,1.367309 -0.633685,2.067787 -0.166733,0.700478 -0.166733,1.500898 0.06673,1.634176 0.233457,0.133277 0.700369,-0.400335 1.000531,-1.367435 0.300162,-0.9671 0.433565,-2.367836 0.833869,-3.201773 0.400305,-0.833936 1.067321,-1.100743 1.667745,-1.100634 0.600423,1.1e-4 1.134037,0.266917 1.700986,0.733905 0.566949,0.466988 1.167264,1.134005 1.80095,1.834394 0.633686,0.700388 1.300703,1.434107 1.567415,1.434112 0.266713,5e-6 0.133309,-0.733714 -0.06671,-1.267347 -0.200023,-0.533633 -0.466829,-0.867141 0.467043,-1.100756 0.933872,-0.233616 3.068078,-0.367004 5.202576,-0.50041 -0.333515,-0.266812 -0.666741,-0.533392 -1.834072,-0.700262 -1.167331,-0.16687 -3.168383,-0.233572 -4.769246,-0.567018 -1.600863,-0.333446 -2.801495,-0.933762 -3.668715,-1.73413 -0.86722,-0.800369 -1.400832,-1.800892 -0.800524,-2.76828 0.600308,-0.967388 2.334552,-1.901212 3.70844,-2.419138 1.373887,-0.517926 2.387236,-0.61996 3.871574,-0.496426 1.484338,0.123533 3.440062,0.472575 4.818883,0.55301 1.378821,0.08044 2.181492,-0.107556 3.657471,-0.249255 1.47598,-0.141699 3.625672,-0.237199 5.14173,0.322841 1.516059,0.56004 2.399219,1.775411 3.669168,2.120895 1.269949,0.345485 2.926096,-0.177981 3.620612,-0.540075 0.694515,-0.362094 0.425803,-0.562442 -0.442411,-0.602022 -0.868214,-0.03958 -2.335135,0.08206 -3.396649,-0.362059 -1.061515,-0.44412 -1.71626,-1.453471 -2.116451,-2.060069 -0.400191,-0.606598 -0.544691,-0.80866 -0.07024,-1.26822 0.474447,-0.45956 1.569616,-1.177341 2.703463,-1.265517 1.133848,-0.08818 2.307154,0.452397 2.927372,0.689313 0.620218,0.236916 0.687734,0.170369 0.209608,-0.298446 -0.478125,-0.468816 -1.501798,-1.33978 -2.734139,-1.618271 -1.232341,-0.278491 -2.672052,0.0363 -3.847518,0.750982 -1.175467,0.714685 -2.086211,1.829142 -3.536656,2.40307 -1.450446,0.573928 -3.44032,0.607242 -5.10385,0.517784 -1.663531,-0.08946 -2.999665,-0.301701 -3.780066,-0.45784 -0.780401,-0.156138 -1.004682,-0.256238 -2.084119,-0.40643 -1.079436,-0.150192 -3.013787,-0.350297 -4.681485,-0.01681 -1.667698,0.333487 -3.068434,1.200609 -4.002167,1.467547 -0.933733,0.266939 -1.400647,-0.06657 -0.812075,-1.353415 0.588572,-1.286844 2.232932,-3.526795 4.401036,-4.827575 2.168105,-1.30078 4.859182,-1.662172 6.638294,-2.343142 1.779112,-0.680971 2.646233,-1.681495 3.280033,-2.215149 0.6338,-0.533654 1.034009,-0.600354 1.734434,-0.600327 0.700425,2.8e-5 1.700952,0.06673 2.301273,0.100071 0.60032,0.03334 0.800161,0.03334 1.00027,0.03334 0,0 -2.401308,-1.400762 -2.401308,-1.400762 0,0 5.002728,-0.600329 5.002728,-0.600329 -0.66703,-0.466921 -1.333759,-0.933631 -2.434388,-1.200543 -1.10063,-0.266912 -2.634769,-0.333614 -3.93564,0.300088 -1.300871,0.633702 -2.368098,1.967736 -3.802158,3.03495 -1.434059,1.067214 -3.235006,1.867635 -4.613968,2.315176 -1.378962,0.447541 -2.3357,0.542124 -3.369878,1.209216 -1.034178,0.667093 -2.144924,1.906517 -3.261749,2.903349 -1.116825,0.996833 -2.239694,1.751058 -2.85129,2.390522 -0.611596,0.639465 -0.71144,1.163313 -1.128083,1.225248 -0.416643,0.06193 -1.150051,-0.338106 -1.350503,-1.038578 -0.200452,-0.700472 0.132991,-1.700802 -0.100359,-3.335085 -0.233351,-1.634282 -1.033636,-3.901757 -1.200544,-5.602963 -0.166908,-1.701206 0.299973,-2.83506 0.09987,-2.735063 -0.2001,0.1 -1.067222,1.434032 -1.167152,3.068482 -0.09993,1.634451 0.567018,3.568604 0.816131,5.071691 0.249112,1.503086 0.08056,2.574253 0.0595,3.799864 -0.02107,1.225612 0.105275,2.603743 -0.427257,3.871448 -0.532532,1.267705 -1.723418,2.423964 -2.794874,3.072896 -1.071455,0.648932 -2.023336,0.790133 -2.975593,0.93139"
       style="fill:#808080;stroke:#000000;stroke-width:0.26458300000000001px" />
    <path
       class="dendrite"
       style="fill:#808080;stroke:#000000;stroke-width:0.26458300000000001px"
       d="m 54.345174,55.370934 c 0.961999,-1.047464 1.924014,-2.094946 3.072205,-2.618695 1.148191,-0.523749 2.482226,-0.523749 3.182486,-0.05668 0.700261,0.467072 0.766963,1.400896 0.633518,2.167892 -0.133445,0.766995 -0.466953,1.367309 -0.633685,2.067787 -0.166733,0.700478 -0.166733,1.500898 0.06673,1.634176 0.233457,0.133277 0.700369,-0.400335 1.000531,-1.367435 0.300162,-0.9671 0.433565,-2.367836 0.833869,-3.201773 0.400305,-0.833936 1.067321,-1.100743 1.667745,-1.100634 0.600423,1.1e-4 1.134037,0.266917 1.700986,0.733905 0.566949,0.466988 1.167264,1.134005 1.80095,1.834394 0.633686,0.700388 1.300703,1.434107 1.567415,1.434112 0.266713,5e-6 0.133309,-0.733714 -0.06671,-1.267347 -0.200023,-0.533633 -0.466829,-0.867141 0.467043,-1.100756 0.933872,-0.233616 3.068078,-0.367004 5.202576,-0.50041 -0.333515,-0.266812 -0.666741,-0.533392 -1.834072,-0.700262 -1.167331,-0.16687 -3.168383,-0.233572 -4.769246,-0.567018 -1.600863,-0.333446 -2.801495,-0.933762 -3.668715,-1.73413 -0.86722,-0.800369 -1.400832,-1.800892 -0.800524,-2.76828 0.600308,-0.967388 2.334552,-1.901212 3.70844,-2.419138 1.373887,-0.517926 2.387236,-0.61996 3.871574,-0.496426 1.484338,0.123533 3.440062,0.472575 4.818883,0.55301 1.378821,0.08044 2.181492,-0.107556 3.657471,-0.249255 1.47598,-0.141699 3.625672,-0.237199 5.14173,0.322841 1.516059,0.56004 2.399219,1.775411 3.669168,2.120895 1.269949,0.345485 2.926096,-0.177981 3.620612,-0.540075 0.694515,-0.362094 0.425803,-0.562442 -0.442411,-0.602022 -0.868214,-0.03958 -2.335135,0.08206 -3.396649,-0.362059 -1.061515,-0.44412 -1.71626,-1.453471 -2.116451,-2.060069 -0.400191,-0.606598 -0.544691,-0.80866 -0.07024,-1.26822 0.474447,-0.45956 1.569616,-1.177341 2.703463,-1.265517 1.133848,-0.08818 2.307154,0.452397 2.927372,0.689313 0.620218,0.236916 0.687734,0.170369 0.209608,-0.298446 -0.478125,-0.468816 -1.501798,-1.33978 -2.734139,-1.618271 -1.232341,-0.278491 -2.672052,0.0363 -3.847518,0.750982 -1.175467,0.714685 -2.086211,1.829142 -3.536656,2.40307 -1.450446,0.573928 -3.44032,0.607242 -5.10385,0.517784 -1.663531,-0.08946 -2.999665,-0.301701 -3.780066,-0.45784 -0.780401,-0.156138 -1.004682,-0.256238 -2.084119,-0.40643 -1.079436,-0.150192 -3.013787,-0.350297 -4.681485,-0.01681 -1.667698,0.333487 -3.068434,1.200609 -4.002167,1.467547 -0.933733,0.266939 -1.400647,-0.06657 -0.812075,-1.353415 0.588572,-1.286844 2.232932,-3.526795 4.401036,-4.827575 2.168105,-1.30078 4.859182,-1.662172 6.638294,-2.343142 1.779112,-0.680971 2.646233,-1.681495 3.280033,-2.215149 0.6338,-0.533654 1.034009,-0.600354 1.734434,-0.600327 0.700425,2.8e-5 1.700952,0.06673 2.301273,0.100071 0.60032,0.03334 0.800161,0.03334 1.00027,0.03334 0,0 -2.401308,-1.400762 -2.401308,-1.400762 0,0 5.002728,-0.600329 5.002728,-0.600329 -0.66703,-0.466921 -1.333759,-0.933631 -2.434388,-1.200543 -1.10063,-0.266912 -2.634769,-0.333614 -3.93564,0.300088 -1.300871,0.633702 -2.368098,1.967736 -3.802158,3.03495 -1.434059,1.067214 -3.235006,1.867635 -4.613968,2.315176 -1.378962,0.447541 -2.3357,0.542124 -3.369878,1.209216 -1.034178,0.667093 -2.144924,1.906517 -3.261749,2.903349 -1.116825,0.996833 -2.239694,1.751058 -2.85129,2.390522 -0.611596,0.639465 -0.71144,1.163313 -1.128083,1.225248 -0.416643,0.06193 -1.150051,-0.338106 -1.350503,-1.038578 -0.200452,-0.700472 0.132991,-1.700802 -0.100359,-3.335085 -0.233351,-1.634282 -1.033636,-3.901757 -1.200544,-5.602963 -0.166908,-1.701206 0.299973,-2.83506 0.09987,-2.735063 -0.2001,0.1 -1.067222,1.434032 -1.167152,3.068482 -0.09993,1.634451 0.567018,3.568604 0.816131,5.071691 0.249112,1.503086 0.08056,2.574253 0.0595,3.799864 -0.02107,1.225612 0.105275,2.603743 -0.508368,3.771088 -0.613643,1.167345 -1.966712,2.123005 -3.112374,2.700626 -1.145661,0.57762 -2.081545,0.776419 -3.018909,0.975532"
       id="dendrite-2"
       inkscape:connector-curvature="0"
       inkscape:path-effect="#path-effect897-9"
       inkscape:original-d="m 54.345174,55.370934 c 0.962486,-1.047017 1.924501,-2.094499 2.886044,-3.142444 1.334352,2.65e-4 2.668387,2.65e-4 4.002183,0 0.06697,0.934125 0.13367,1.86795 0.20011,2.801527 -0.333259,0.600605 -0.666766,1.20092 -1.000546,1.800982 2.65e-4,0.800719 2.65e-4,1.601139 0,2.401311 0.467196,-0.533371 0.934106,-1.066985 1.400765,-1.600872 0.133673,-1.40053 0.267076,-2.801266 0.400217,-4.202293 0.667308,-0.266554 1.334325,-0.53336 2.001091,-0.800438 0.5339,0.267083 1.067515,0.533889 1.600875,0.800438 0.600604,0.667309 1.20092,1.334326 1.800982,2.001092 0.667308,0.734012 1.334325,1.467731 2.001091,2.201201 -0.133144,-0.733486 -0.266547,-1.467205 -0.400219,-2.201201 -0.266552,-0.333259 -0.533358,-0.666766 -0.800436,-1.000546 2.134806,-0.133146 6.403493,-0.400219 6.403493,-0.400219 0,0 -0.666766,-0.533361 -1.000546,-0.800436 -2.000866,-0.06644 -4.001918,-0.133141 -6.003274,-0.20011 -1.200414,-0.600075 -2.401046,-1.200391 -3.601966,-1.800982 -0.533371,-1.000302 -1.066982,-2.000826 -1.600872,-3.001637 1.734579,-0.933598 3.468823,-1.867421 5.202838,-2.80153 1.013633,-0.101635 2.026982,-0.203669 3.039821,-0.30608 1.955738,0.349366 3.911462,0.698407 5.866375,1.046983 0.802891,-0.187563 1.605562,-0.375554 2.407725,-0.563905 2.149708,-0.0951 4.2994,-0.190596 6.448213,-0.286464 0.883351,1.215496 1.766511,2.430867 2.649163,3.645675 1.657328,-0.523328 3.313475,-1.046794 4.970948,-1.571189 -0.268639,-0.200189 -0.537351,-0.400538 -0.806638,-0.60142 -1.467056,0.122074 -2.933977,0.243715 -4.4019,0.365018 -0.65505,-1.010021 -1.309795,-2.019372 -1.965975,-3.030736 -0.144225,-0.201822 -0.288725,-0.403884 -0.433508,-0.606197 1.093902,-0.716311 2.189071,-1.434092 3.282859,-2.151607 1.173533,0.540891 2.346839,1.081465 3.519829,1.621679 0.06791,-0.06617 0.135426,-0.132716 0.202581,-0.199673 -1.023821,-0.871026 -2.047494,-1.741989 -3.072153,-2.613857 -1.439892,0.3153 -2.879603,0.630087 -4.319868,0.944522 -0.910347,1.114827 -1.821091,2.229284 -2.732324,3.343481 -1.990071,0.03371 -3.979945,0.06702 -5.970865,0.09996 -1.336199,-0.211925 -2.672333,-0.424168 -4.009243,-0.636864 -0.223922,-0.09972 -0.448204,-0.199819 -0.672857,-0.300303 -1.934162,-0.199848 -3.868513,-0.399955 -5.803165,-0.600327 -1.400529,0.867421 -2.801265,1.734542 -4.202292,2.601418 -0.466667,-0.333256 -0.93358,-0.666766 -1.400765,-1.000546 1.644895,-2.23957 3.289255,-4.479521 4.933177,-6.719987 2.691824,-0.360981 5.382901,-0.722373 8.073917,-1.084268 0.867423,-1.000303 1.734545,-2.000827 2.60142,-3.00164 0.400492,-0.06644 0.800701,-0.133141 1.200656,-0.200107 1.000828,0.06697 2.001356,0.13367 3.001637,0.200107 0.200376,2.65e-4 0.600326,0 0.600326,0 l -2.401308,-1.400762 5.002728,-0.600329 c 0,0 -1.333796,-0.933577 -2.001091,-1.400763 -1.533938,-0.06644 -3.068077,-0.133141 -4.602512,-0.200109 -1.067006,1.334351 -2.134232,2.668386 -3.201746,4.002182 -1.800755,0.800717 -3.601701,1.601139 -5.402948,2.401311 -0.956771,0.09508 -1.913509,0.189663 -2.871078,0.283834 -1.110343,1.239966 -2.221088,2.479391 -3.332304,3.718349 -1.122569,0.754798 -2.245438,1.509023 -3.369028,2.262959 -0.09941,0.524565 -0.199251,1.048413 -0.299662,1.57223 -0.733503,-0.399914 -1.466911,-0.799955 -2.2012,-1.200655 0.334034,-1.000191 0.667477,-2.000521 1.000545,-3.001638 -0.800048,-2.267743 -1.600333,-4.535218 -2.401309,-6.803711 0.46744,-1.133578 0.934321,-2.267432 1.400764,-3.401856 -0.866671,1.334537 -1.733793,2.668571 -2.601419,4.002184 0.667517,1.93483 1.334467,3.868983 2.001091,5.803165 -0.168153,1.07218 -0.336706,2.143347 -0.505863,3.214804 0.126926,1.379639 0.253266,2.75777 0.379205,4.136417 -1.354016,0.955593 -2.707085,1.911253 -4.060371,2.867803 -0.937785,0.198736 -1.873669,0.397535 -2.810938,0.597094"
       transform="matrix(-0.02269552,-0.08563112,-0.07592789,0.02209341,13.273594,7.9819845)"
       sodipodi:nodetypes="cccccccccccccccccccccccccccccccccccccccccccccccccccccccccccccccccccc" />
    <path
       class="dendrite"
       style="fill:#808080;stroke:#000000;stroke-width:0.26458300000000001px"
       d="m 52.99935,56.27144 c 1.422019,-1.274964 2.842299,-2.548369 4.215575,-3.222952 1.373276,-0.674584 2.695944,-0.747295 3.390572,-0.316575 0.694629,0.43072 0.761331,1.364544 0.627886,2.13154 -0.133445,0.766995 -0.466953,1.367309 -0.633685,2.067787 -0.166733,0.700478 -0.166733,1.500898 0.06673,1.634176 0.233457,0.133277 0.700369,-0.400335 1.000531,-1.367435 0.300162,-0.9671 0.433565,-2.367836 0.833869,-3.201773 0.400305,-0.833936 1.067321,-1.100743 1.667745,-1.100634 0.600423,1.1e-4 1.134037,0.266917 1.700986,0.733905 0.566949,0.466988 1.167264,1.134005 1.80095,1.834394 0.633686,0.700388 1.300703,1.434107 1.567415,1.434112 0.266713,5e-6 0.133309,-0.733714 -0.06671,-1.267347 -0.200023,-0.533633 -0.466829,-0.867141 0.467043,-1.100756 0.933872,-0.233616 3.068078,-0.367004 5.202576,-0.50041 -0.333515,-0.266812 -0.666741,-0.533392 -1.834072,-0.700262 -1.167331,-0.16687 -3.168383,-0.233572 -4.769246,-0.567018 -1.600863,-0.333446 -2.801495,-0.933762 -3.668715,-1.73413 -0.86722,-0.800369 -1.400832,-1.800892 -0.800524,-2.76828 0.600308,-0.967388 2.334552,-1.901212 3.70844,-2.419138 1.373887,-0.517926 2.387236,-0.61996 3.871574,-0.496426 1.484338,0.123533 3.440062,0.472575 4.818883,0.55301 1.378821,0.08044 2.181492,-0.107556 3.657471,-0.249255 1.47598,-0.141699 3.625672,-0.237199 5.14173,0.322841 1.516059,0.56004 2.399219,1.775411 3.669168,2.120895 1.269949,0.345485 2.926096,-0.177981 3.620612,-0.540075 0.694515,-0.362094 0.425803,-0.562442 -0.442411,-0.602022 -0.868214,-0.03958 -2.335135,0.08206 -3.396649,-0.362059 -1.061515,-0.44412 -1.71626,-1.453471 -2.116451,-2.060069 -0.400191,-0.606598 -0.544691,-0.80866 -0.07024,-1.26822 0.474447,-0.45956 1.569616,-1.177341 2.703463,-1.265517 1.133848,-0.08818 2.307154,0.452397 2.927372,0.689313 0.620218,0.236916 0.687734,0.170369 0.209608,-0.298446 -0.478125,-0.468816 -1.501798,-1.33978 -2.734139,-1.618271 -1.232341,-0.278491 -2.672052,0.0363 -3.847518,0.750982 -1.175467,0.714685 -2.086211,1.829142 -3.536656,2.40307 -1.450446,0.573928 -3.44032,0.607242 -5.10385,0.517784 -1.663531,-0.08946 -2.999665,-0.301701 -3.780066,-0.45784 -0.780401,-0.156138 -1.004682,-0.256238 -2.084119,-0.40643 -1.079436,-0.150192 -3.013787,-0.350297 -4.681485,-0.01681 -1.667698,0.333487 -3.068434,1.200609 -4.002167,1.467547 -0.933733,0.266939 -1.400647,-0.06657 -0.812075,-1.353415 0.588572,-1.286844 2.232932,-3.526795 4.401036,-4.827575 2.168105,-1.30078 4.859182,-1.662172 6.638294,-2.343142 1.779112,-0.680971 2.646233,-1.681495 3.280033,-2.215149 0.6338,-0.533654 1.034009,-0.600354 1.734434,-0.600327 0.700425,2.8e-5 1.700952,0.06673 2.301273,0.100071 0.60032,0.03334 0.800161,0.03334 1.00027,0.03334 0,0 -2.401308,-1.400762 -2.401308,-1.400762 0,0 5.002728,-0.600329 5.002728,-0.600329 -0.66703,-0.466921 -1.333759,-0.933631 -2.434388,-1.200543 -1.10063,-0.266912 -2.634769,-0.333614 -3.93564,0.300088 -1.300871,0.633702 -2.368098,1.967736 -3.802158,3.03495 -1.434059,1.067214 -3.235006,1.867635 -4.613968,2.315176 -1.378962,0.447541 -2.3357,0.542124 -3.369878,1.209216 -1.034178,0.667093 -2.144924,1.906517 -3.261749,2.903349 -1.116825,0.996833 -2.239694,1.751058 -2.85129,2.390522 -0.611596,0.639465 -0.71144,1.163313 -1.128083,1.225248 -0.416643,0.06193 -1.150051,-0.338106 -1.350503,-1.038578 -0.200452,-0.700472 0.132991,-1.700802 -0.100359,-3.335085 -0.233351,-1.634282 -1.033636,-3.901757 -1.200544,-5.602963 -0.166908,-1.701206 0.299973,-2.83506 0.09987,-2.735063 -0.2001,0.1 -1.067222,1.434032 -1.167152,3.068482 -0.09993,1.634451 0.567018,3.568604 0.816131,5.071691 0.249112,1.503086 0.08056,2.574253 0.0595,3.799864 -0.02107,1.225612 0.105275,2.603743 -0.427257,3.871448 -0.532532,1.267705 -1.723418,2.423964 -3.316988,3.317941 -1.593569,0.893976 -3.590804,1.525675 -5.589601,2.157869"
       id="dendrite-3"
       inkscape:connector-curvature="0"
       inkscape:path-effect="#path-effect897-3"
       inkscape:original-d="m 52.99935,56.27144 c 1.422069,-1.274908 2.842349,-2.548313 4.265969,-3.824813 1.322918,-0.07206 2.645586,-0.144772 3.968082,-0.218137 0.06697,0.934125 0.13367,1.86795 0.20011,2.801527 -0.333259,0.600605 -0.666766,1.20092 -1.000546,1.800982 2.65e-4,0.800719 2.65e-4,1.601139 0,2.401311 0.467196,-0.533371 0.934106,-1.066985 1.400765,-1.600872 0.133673,-1.40053 0.267076,-2.801266 0.400217,-4.202293 0.667308,-0.266554 1.334325,-0.53336 2.001091,-0.800438 0.5339,0.267083 1.067515,0.533889 1.600875,0.800438 0.600604,0.667309 1.20092,1.334326 1.800982,2.001092 0.667308,0.734012 1.334325,1.467731 2.001091,2.201201 -0.133144,-0.733486 -0.266547,-1.467205 -0.400219,-2.201201 -0.266552,-0.333259 -0.533358,-0.666766 -0.800436,-1.000546 2.134806,-0.133146 6.403493,-0.400219 6.403493,-0.400219 0,0 -0.666766,-0.533361 -1.000546,-0.800436 -2.000866,-0.06644 -4.001918,-0.133141 -6.003274,-0.20011 -1.200414,-0.600075 -2.401046,-1.200391 -3.601966,-1.800982 -0.533371,-1.000302 -1.066982,-2.000826 -1.600872,-3.001637 1.734579,-0.933598 3.468823,-1.867421 5.202838,-2.80153 1.013633,-0.101635 2.026982,-0.203669 3.039821,-0.30608 1.955738,0.349366 3.911462,0.698407 5.866375,1.046983 0.802891,-0.187563 1.605562,-0.375554 2.407725,-0.563905 2.149708,-0.0951 4.2994,-0.190596 6.448213,-0.286464 0.883351,1.215496 1.766511,2.430867 2.649163,3.645675 1.657328,-0.523328 3.313475,-1.046794 4.970948,-1.571189 -0.268639,-0.200189 -0.537351,-0.400538 -0.806638,-0.60142 -1.467056,0.122074 -2.933977,0.243715 -4.4019,0.365018 -0.65505,-1.010021 -1.309795,-2.019372 -1.965975,-3.030736 -0.144225,-0.201822 -0.288725,-0.403884 -0.433508,-0.606197 1.093902,-0.716311 2.189071,-1.434092 3.282859,-2.151607 1.173533,0.540891 2.346839,1.081465 3.519829,1.621679 0.06791,-0.06617 0.135426,-0.132716 0.202581,-0.199673 -1.023821,-0.871026 -2.047494,-1.741989 -3.072153,-2.613857 -1.439892,0.3153 -2.879603,0.630087 -4.319868,0.944522 -0.910347,1.114827 -1.821091,2.229284 -2.732324,3.343481 -1.990071,0.03371 -3.979945,0.06702 -5.970865,0.09996 -1.336199,-0.211925 -2.672333,-0.424168 -4.009243,-0.636864 -0.223922,-0.09972 -0.448204,-0.199819 -0.672857,-0.300303 -1.934162,-0.199848 -3.868513,-0.399955 -5.803165,-0.600327 -1.400529,0.867421 -2.801265,1.734542 -4.202292,2.601418 -0.466667,-0.333256 -0.93358,-0.666766 -1.400765,-1.000546 1.644895,-2.23957 3.289255,-4.479521 4.933177,-6.719987 2.691824,-0.360981 5.382901,-0.722373 8.073917,-1.084268 0.867423,-1.000303 1.734545,-2.000827 2.60142,-3.00164 0.400492,-0.06644 0.800701,-0.133141 1.200656,-0.200107 1.000828,0.06697 2.001356,0.13367 3.001637,0.200107 0.200376,2.65e-4 0.600326,0 0.600326,0 l -2.401308,-1.400762 5.002728,-0.600329 c 0,0 -1.333796,-0.933577 -2.001091,-1.400763 -1.533938,-0.06644 -3.068077,-0.133141 -4.602512,-0.200109 -1.067006,1.334351 -2.134232,2.668386 -3.201746,4.002182 -1.800755,0.800717 -3.601701,1.601139 -5.402948,2.401311 -0.956771,0.09508 -1.913509,0.189663 -2.871078,0.283834 -1.110343,1.239966 -2.221088,2.479391 -3.332304,3.718349 -1.122569,0.754798 -2.245438,1.509023 -3.369028,2.262959 -0.09941,0.524565 -0.199251,1.048413 -0.299662,1.57223 -0.733503,-0.399914 -1.466911,-0.799955 -2.2012,-1.200655 0.334034,-1.000191 0.667477,-2.000521 1.000545,-3.001638 -0.800048,-2.267743 -1.600333,-4.535218 -2.401309,-6.803711 0.46744,-1.133578 0.934321,-2.267432 1.400764,-3.401856 -0.866671,1.334537 -1.733793,2.668571 -2.601419,4.002184 0.667517,1.93483 1.334467,3.868983 2.001091,5.803165 -0.168153,1.07218 -0.336706,2.143347 -0.505863,3.214804 0.126926,1.379639 0.253266,2.75777 0.379205,4.136417 -1.190987,1.157277 -2.381873,2.313537 -3.573684,3.469774 -1.995648,0.631686 -3.992882,1.263386 -5.99182,1.895135"
       transform="matrix(0.01129489,-0.05005805,0.06646338,0.00782563,1.6495881,6.8320905)"
       sodipodi:nodetypes="cccccccccccccccccccccccccccccccccccccccccccccccccccccccccccccccccccc" />
    <path
       class="dendrite"
       style="fill:#808080;stroke:#000000;stroke-width:0.26458300000000001px"
       d="m 54.345174,55.370934 c 0.961999,-1.047464 1.924014,-2.094946 3.072205,-2.618695 1.148191,-0.523749 2.482226,-0.523749 3.182486,-0.05668 0.700261,0.467072 0.766963,1.400896 0.633518,2.167892 -0.133445,0.766995 -0.466953,1.367309 -0.633685,2.067787 -0.166733,0.700478 -0.166733,1.500898 0.06673,1.634176 0.233457,0.133277 0.700369,-0.400335 1.000531,-1.367435 0.300162,-0.9671 0.433565,-2.367836 0.833869,-3.201773 0.400305,-0.833936 1.067321,-1.100743 1.667745,-1.100634 0.600423,1.1e-4 1.134037,0.266917 1.700986,0.733905 0.566949,0.466988 1.167264,1.134005 1.80095,1.834394 0.633686,0.700388 1.300703,1.434107 1.567415,1.434112 0.266713,5e-6 0.133309,-0.733714 -0.06671,-1.267347 -0.200023,-0.533633 -0.466829,-0.867141 0.467043,-1.100756 0.933872,-0.233616 3.068078,-0.367004 5.202576,-0.50041 -0.333515,-0.266812 -0.666741,-0.533392 -1.834072,-0.700262 -1.167331,-0.16687 -3.168383,-0.233572 -4.769246,-0.567018 -1.600863,-0.333446 -2.801495,-0.933762 -3.668715,-1.73413 -0.86722,-0.800369 -1.400832,-1.800892 -0.800524,-2.76828 0.600308,-0.967388 2.334552,-1.901212 3.70844,-2.419138 1.373887,-0.517926 2.387236,-0.61996 3.871574,-0.496426 1.484338,0.123533 3.440062,0.472575 4.818883,0.55301 1.378821,0.08044 2.181492,-0.107556 3.657471,-0.249255 1.47598,-0.141699 3.625672,-0.237199 5.14173,0.322841 1.516059,0.56004 2.399219,1.775411 3.669168,2.120895 1.269949,0.345485 2.926096,-0.177981 3.620612,-0.540075 0.694515,-0.362094 0.425803,-0.562442 -0.442411,-0.602022 -0.868214,-0.03958 -2.335135,0.08206 -3.396649,-0.362059 -1.061515,-0.44412 -1.71626,-1.453471 -2.116451,-2.060069 -0.400191,-0.606598 -0.544691,-0.80866 -0.07024,-1.26822 0.474447,-0.45956 1.569616,-1.177341 2.703463,-1.265517 1.133848,-0.08818 2.307154,0.452397 2.927372,0.689313 0.620218,0.236916 0.687734,0.170369 0.209608,-0.298446 -0.478125,-0.468816 -1.501798,-1.33978 -2.734139,-1.618271 -1.232341,-0.278491 -2.672052,0.0363 -3.847518,0.750982 -1.175467,0.714685 -2.086211,1.829142 -3.536656,2.40307 -1.450446,0.573928 -3.44032,0.607242 -5.10385,0.517784 -1.663531,-0.08946 -2.999665,-0.301701 -3.780066,-0.45784 -0.780401,-0.156138 -1.004682,-0.256238 -2.084119,-0.40643 -1.079436,-0.150192 -3.013787,-0.350297 -4.681485,-0.01681 -1.667698,0.333487 -3.068434,1.200609 -4.002167,1.467547 -0.933733,0.266939 -1.400647,-0.06657 -0.812075,-1.353415 0.588572,-1.286844 2.232932,-3.526795 4.401036,-4.827575 2.168105,-1.30078 4.859182,-1.662172 6.638294,-2.343142 1.779112,-0.680971 2.646233,-1.681495 3.280033,-2.215149 0.6338,-0.533654 1.034009,-0.600354 1.734434,-0.600327 0.700425,2.8e-5 1.700952,0.06673 2.301273,0.100071 0.60032,0.03334 0.800161,0.03334 1.00027,0.03334 0,0 -2.401308,-1.400762 -2.401308,-1.400762 0,0 5.002728,-0.600329 5.002728,-0.600329 -0.66703,-0.466921 -1.333759,-0.933631 -2.434388,-1.200543 -1.10063,-0.266912 -2.634769,-0.333614 -3.93564,0.300088 -1.300871,0.633702 -2.368098,1.967736 -3.802158,3.03495 -1.434059,1.067214 -3.235006,1.867635 -4.613968,2.315176 -1.378962,0.447541 -2.3357,0.542124 -3.369878,1.209216 -1.034178,0.667093 -2.144924,1.906517 -3.261749,2.903349 -1.116825,0.996833 -2.239694,1.751058 -2.85129,2.390522 -0.611596,0.639465 -0.71144,1.163313 -1.128083,1.225248 -0.416643,0.06193 -1.150051,-0.338106 -1.350503,-1.038578 -0.200452,-0.700472 0.132991,-1.700802 -0.100359,-3.335085 -0.233351,-1.634282 -1.033636,-3.901757 -1.200544,-5.602963 -0.166908,-1.701206 0.299973,-2.83506 0.09987,-2.735063 -0.2001,0.1 -1.067222,1.434032 -1.167152,3.068482 -0.09993,1.634451 0.567018,3.568604 0.816131,5.071691 0.249112,1.503086 0.08056,2.574253 0.0595,3.799864 -0.02107,1.225612 0.105275,2.603743 -0.427257,3.871448 -0.532532,1.267705 -1.723418,2.423964 -2.794874,3.072896 -1.071455,0.648932 -2.023336,0.790133 -2.975593,0.93139"
       id="dendrite-4"
       inkscape:connector-curvature="0"
       inkscape:path-effect="#path-effect897-32"
       inkscape:original-d="m 54.345174,55.370934 c 0.962486,-1.047017 1.924501,-2.094499 2.886044,-3.142444 1.334352,2.65e-4 2.668387,2.65e-4 4.002183,0 0.06697,0.934125 0.13367,1.86795 0.20011,2.801527 -0.333259,0.600605 -0.666766,1.20092 -1.000546,1.800982 2.65e-4,0.800719 2.65e-4,1.601139 0,2.401311 0.467196,-0.533371 0.934106,-1.066985 1.400765,-1.600872 0.133673,-1.40053 0.267076,-2.801266 0.400217,-4.202293 0.667308,-0.266554 1.334325,-0.53336 2.001091,-0.800438 0.5339,0.267083 1.067515,0.533889 1.600875,0.800438 0.600604,0.667309 1.20092,1.334326 1.800982,2.001092 0.667308,0.734012 1.334325,1.467731 2.001091,2.201201 -0.133144,-0.733486 -0.266547,-1.467205 -0.400219,-2.201201 -0.266552,-0.333259 -0.533358,-0.666766 -0.800436,-1.000546 2.134806,-0.133146 6.403493,-0.400219 6.403493,-0.400219 0,0 -0.666766,-0.533361 -1.000546,-0.800436 -2.000866,-0.06644 -4.001918,-0.133141 -6.003274,-0.20011 -1.200414,-0.600075 -2.401046,-1.200391 -3.601966,-1.800982 -0.533371,-1.000302 -1.066982,-2.000826 -1.600872,-3.001637 1.734579,-0.933598 3.468823,-1.867421 5.202838,-2.80153 1.013633,-0.101635 2.026982,-0.203669 3.039821,-0.30608 1.955738,0.349366 3.911462,0.698407 5.866375,1.046983 0.802891,-0.187563 1.605562,-0.375554 2.407725,-0.563905 2.149708,-0.0951 4.2994,-0.190596 6.448213,-0.286464 0.883351,1.215496 1.766511,2.430867 2.649163,3.645675 1.657328,-0.523328 3.313475,-1.046794 4.970948,-1.571189 -0.268639,-0.200189 -0.537351,-0.400538 -0.806638,-0.60142 -1.467056,0.122074 -2.933977,0.243715 -4.4019,0.365018 -0.65505,-1.010021 -1.309795,-2.019372 -1.965975,-3.030736 -0.144225,-0.201822 -0.288725,-0.403884 -0.433508,-0.606197 1.093902,-0.716311 2.189071,-1.434092 3.282859,-2.151607 1.173533,0.540891 2.346839,1.081465 3.519829,1.621679 0.06791,-0.06617 0.135426,-0.132716 0.202581,-0.199673 -1.023821,-0.871026 -2.047494,-1.741989 -3.072153,-2.613857 -1.439892,0.3153 -2.879603,0.630087 -4.319868,0.944522 -0.910347,1.114827 -1.821091,2.229284 -2.732324,3.343481 -1.990071,0.03371 -3.979945,0.06702 -5.970865,0.09996 -1.336199,-0.211925 -2.672333,-0.424168 -4.009243,-0.636864 -0.223922,-0.09972 -0.448204,-0.199819 -0.672857,-0.300303 -1.934162,-0.199848 -3.868513,-0.399955 -5.803165,-0.600327 -1.400529,0.867421 -2.801265,1.734542 -4.202292,2.601418 -0.466667,-0.333256 -0.93358,-0.666766 -1.400765,-1.000546 1.644895,-2.23957 3.289255,-4.479521 4.933177,-6.719987 2.691824,-0.360981 5.382901,-0.722373 8.073917,-1.084268 0.867423,-1.000303 1.734545,-2.000827 2.60142,-3.00164 0.400492,-0.06644 0.800701,-0.133141 1.200656,-0.200107 1.000828,0.06697 2.001356,0.13367 3.001637,0.200107 0.200376,2.65e-4 0.600326,0 0.600326,0 l -2.401308,-1.400762 5.002728,-0.600329 c 0,0 -1.333796,-0.933577 -2.001091,-1.400763 -1.533938,-0.06644 -3.068077,-0.133141 -4.602512,-0.200109 -1.067006,1.334351 -2.134232,2.668386 -3.201746,4.002182 -1.800755,0.800717 -3.601701,1.601139 -5.402948,2.401311 -0.956771,0.09508 -1.913509,0.189663 -2.871078,0.283834 -1.110343,1.239966 -2.221088,2.479391 -3.332304,3.718349 -1.122569,0.754798 -2.245438,1.509023 -3.369028,2.262959 -0.09941,0.524565 -0.199251,1.048413 -0.299662,1.57223 -0.733503,-0.399914 -1.466911,-0.799955 -2.2012,-1.200655 0.334034,-1.000191 0.667477,-2.000521 1.000545,-3.001638 -0.800048,-2.267743 -1.600333,-4.535218 -2.401309,-6.803711 0.46744,-1.133578 0.934321,-2.267432 1.400764,-3.401856 -0.866671,1.334537 -1.733793,2.668571 -2.601419,4.002184 0.667517,1.93483 1.334467,3.868983 2.001091,5.803165 -0.168153,1.07218 -0.336706,2.143347 -0.505863,3.214804 0.126926,1.379639 0.253266,2.75777 0.379205,4.136417 -1.190987,1.157277 -2.381873,2.313537 -3.573684,3.469774 -0.951485,0.14166 -1.903366,0.282861 -2.855698,0.423611"
       transform="matrix(-0.05726571,-0.06759006,0.06154686,-0.04965025,3.8628536,12.732816)"
       sodipodi:nodetypes="cccccccccccccccccccccccccccccccccccccccccccccccccccccccccccccccccccc" />
    <path
       class="dendrite"
       style="fill:#808080;stroke:#000000;stroke-width:0.26458300000000001px"
       d="m 54.345174,55.370934 c 0.961999,-1.047464 1.924014,-2.094946 3.072205,-2.618695 1.148191,-0.523749 2.482226,-0.523749 3.182486,-0.05668 0.700261,0.467072 0.766963,1.400896 0.633518,2.167892 -0.133445,0.766995 -0.466953,1.367309 -0.633685,2.067787 -0.166733,0.700478 -0.166733,1.500898 0.06673,1.634176 0.233457,0.133277 0.700369,-0.400335 1.000531,-1.367435 0.300162,-0.9671 0.433565,-2.367836 0.833869,-3.201773 0.400305,-0.833936 1.067321,-1.100743 1.667745,-1.100634 0.600423,1.1e-4 1.134037,0.266917 1.700986,0.733905 0.566949,0.466988 1.167264,1.134005 1.80095,1.834394 0.633686,0.700388 1.300703,1.434107 1.567415,1.434112 0.266713,5e-6 0.133309,-0.733714 -0.06671,-1.267347 -0.200023,-0.533633 -0.466829,-0.867141 0.467043,-1.100756 0.933872,-0.233616 3.068078,-0.367004 5.202576,-0.50041 -0.333515,-0.266812 -0.666741,-0.533392 -1.834072,-0.700262 -1.167331,-0.16687 -3.168383,-0.233572 -4.769246,-0.567018 -1.600863,-0.333446 -2.801495,-0.933762 -3.668715,-1.73413 -0.86722,-0.800369 -1.400832,-1.800892 -0.800524,-2.76828 0.600308,-0.967388 2.334552,-1.901212 3.70844,-2.419138 1.373887,-0.517926 2.387236,-0.61996 3.871574,-0.496426 1.484338,0.123533 3.440062,0.472575 4.818883,0.55301 1.378821,0.08044 2.181492,-0.107556 3.657471,-0.249255 1.47598,-0.141699 3.625672,-0.237199 5.14173,0.322841 1.516059,0.56004 2.399219,1.775411 3.669168,2.120895 1.269949,0.345485 2.926096,-0.177981 3.620612,-0.540075 0.694515,-0.362094 0.425803,-0.562442 -0.442411,-0.602022 -0.868214,-0.03958 -2.335135,0.08206 -3.396649,-0.362059 -1.061515,-0.44412 -1.71626,-1.453471 -2.116451,-2.060069 -0.400191,-0.606598 -0.544691,-0.80866 -0.07024,-1.26822 0.474447,-0.45956 1.569616,-1.177341 2.703463,-1.265517 1.133848,-0.08818 2.307154,0.452397 2.927372,0.689313 0.620218,0.236916 0.687734,0.170369 0.209608,-0.298446 -0.478125,-0.468816 -1.501798,-1.33978 -2.734139,-1.618271 -1.232341,-0.278491 -2.672052,0.0363 -3.847518,0.750982 -1.175467,0.714685 -2.086211,1.829142 -3.536656,2.40307 -1.450446,0.573928 -3.44032,0.607242 -5.10385,0.517784 -1.663531,-0.08946 -2.999665,-0.301701 -3.780066,-0.45784 -0.780401,-0.156138 -1.004682,-0.256238 -2.084119,-0.40643 -1.079436,-0.150192 -3.013787,-0.350297 -4.681485,-0.01681 -1.667698,0.333487 -3.068434,1.200609 -4.002167,1.467547 -0.933733,0.266939 -1.400647,-0.06657 -0.812075,-1.353415 0.588572,-1.286844 2.232932,-3.526795 4.401036,-4.827575 2.168105,-1.30078 4.859182,-1.662172 6.638294,-2.343142 1.779112,-0.680971 2.646233,-1.681495 3.280033,-2.215149 0.6338,-0.533654 1.034009,-0.600354 1.734434,-0.600327 0.700425,2.8e-5 1.700952,0.06673 2.301273,0.100071 0.60032,0.03334 0.800161,0.03334 1.00027,0.03334 0,0 -2.401308,-1.400762 -2.401308,-1.400762 0,0 5.002728,-0.600329 5.002728,-0.600329 -0.66703,-0.466921 -1.333759,-0.933631 -2.434388,-1.200543 -1.10063,-0.266912 -2.634769,-0.333614 -3.93564,0.300088 -1.300871,0.633702 -2.368098,1.967736 -3.802158,3.03495 -1.434059,1.067214 -3.235006,1.867635 -4.613968,2.315176 -1.378962,0.447541 -2.3357,0.542124 -3.369878,1.209216 -1.034178,0.667093 -2.144924,1.906517 -3.261749,2.903349 -1.116825,0.996833 -2.239694,1.751058 -2.85129,2.390522 -0.611596,0.639465 -0.71144,1.163313 -1.128083,1.225248 -0.416643,0.06193 -1.150051,-0.338106 -1.350503,-1.038578 -0.200452,-0.700472 0.132991,-1.700802 -0.100359,-3.335085 -0.233351,-1.634282 -1.033636,-3.901757 -1.200544,-5.602963 -0.166908,-1.701206 0.299973,-2.83506 0.09987,-2.735063 -0.2001,0.1 -1.067222,1.434032 -1.167152,3.068482 -0.09993,1.634451 0.567018,3.568604 0.816131,5.071691 0.249112,1.503086 0.08056,2.574253 0.0595,3.799864 -0.02107,1.225612 0.105275,2.603743 -0.427257,3.871448 -0.532532,1.267705 -1.723418,2.423964 -2.794874,3.072896 -1.071455,0.648932 -2.023336,0.790133 -2.975593,0.93139"
       id="dendrite-6"
       inkscape:connector-curvature="0"
       inkscape:path-effect="#path-effect897-2"
       inkscape:original-d="m 54.345174,55.370934 c 0.962486,-1.047017 1.924501,-2.094499 2.886044,-3.142444 1.334352,2.65e-4 2.668387,2.65e-4 4.002183,0 0.06697,0.934125 0.13367,1.86795 0.20011,2.801527 -0.333259,0.600605 -0.666766,1.20092 -1.000546,1.800982 2.65e-4,0.800719 2.65e-4,1.601139 0,2.401311 0.467196,-0.533371 0.934106,-1.066985 1.400765,-1.600872 0.133673,-1.40053 0.267076,-2.801266 0.400217,-4.202293 0.667308,-0.266554 1.334325,-0.53336 2.001091,-0.800438 0.5339,0.267083 1.067515,0.533889 1.600875,0.800438 0.600604,0.667309 1.20092,1.334326 1.800982,2.001092 0.667308,0.734012 1.334325,1.467731 2.001091,2.201201 -0.133144,-0.733486 -0.266547,-1.467205 -0.400219,-2.201201 -0.266552,-0.333259 -0.533358,-0.666766 -0.800436,-1.000546 2.134806,-0.133146 6.403493,-0.400219 6.403493,-0.400219 0,0 -0.666766,-0.533361 -1.000546,-0.800436 -2.000866,-0.06644 -4.001918,-0.133141 -6.003274,-0.20011 -1.200414,-0.600075 -2.401046,-1.200391 -3.601966,-1.800982 -0.533371,-1.000302 -1.066982,-2.000826 -1.600872,-3.001637 1.734579,-0.933598 3.468823,-1.867421 5.202838,-2.80153 1.013633,-0.101635 2.026982,-0.203669 3.039821,-0.30608 1.955738,0.349366 3.911462,0.698407 5.866375,1.046983 0.802891,-0.187563 1.605562,-0.375554 2.407725,-0.563905 2.149708,-0.0951 4.2994,-0.190596 6.448213,-0.286464 0.883351,1.215496 1.766511,2.430867 2.649163,3.645675 1.657328,-0.523328 3.313475,-1.046794 4.970948,-1.571189 -0.268639,-0.200189 -0.537351,-0.400538 -0.806638,-0.60142 -1.467056,0.122074 -2.933977,0.243715 -4.4019,0.365018 -0.65505,-1.010021 -1.309795,-2.019372 -1.965975,-3.030736 -0.144225,-0.201822 -0.288725,-0.403884 -0.433508,-0.606197 1.093902,-0.716311 2.189071,-1.434092 3.282859,-2.151607 1.173533,0.540891 2.346839,1.081465 3.519829,1.621679 0.06791,-0.06617 0.135426,-0.132716 0.202581,-0.199673 -1.023821,-0.871026 -2.047494,-1.741989 -3.072153,-2.613857 -1.439892,0.3153 -2.879603,0.630087 -4.319868,0.944522 -0.910347,1.114827 -1.821091,2.229284 -2.732324,3.343481 -1.990071,0.03371 -3.979945,0.06702 -5.970865,0.09996 -1.336199,-0.211925 -2.672333,-0.424168 -4.009243,-0.636864 -0.223922,-0.09972 -0.448204,-0.199819 -0.672857,-0.300303 -1.934162,-0.199848 -3.868513,-0.399955 -5.803165,-0.600327 -1.400529,0.867421 -2.801265,1.734542 -4.202292,2.601418 -0.466667,-0.333256 -0.93358,-0.666766 -1.400765,-1.000546 1.644895,-2.23957 3.289255,-4.479521 4.933177,-6.719987 2.691824,-0.360981 5.382901,-0.722373 8.073917,-1.084268 0.867423,-1.000303 1.734545,-2.000827 2.60142,-3.00164 0.400492,-0.06644 0.800701,-0.133141 1.200656,-0.200107 1.000828,0.06697 2.001356,0.13367 3.001637,0.200107 0.200376,2.65e-4 0.600326,0 0.600326,0 l -2.401308,-1.400762 5.002728,-0.600329 c 0,0 -1.333796,-0.933577 -2.001091,-1.400763 -1.533938,-0.06644 -3.068077,-0.133141 -4.602512,-0.200109 -1.067006,1.334351 -2.134232,2.668386 -3.201746,4.002182 -1.800755,0.800717 -3.601701,1.601139 -5.402948,2.401311 -0.956771,0.09508 -1.913509,0.189663 -2.871078,0.283834 -1.110343,1.239966 -2.221088,2.479391 -3.332304,3.718349 -1.122569,0.754798 -2.245438,1.509023 -3.369028,2.262959 -0.09941,0.524565 -0.199251,1.048413 -0.299662,1.57223 -0.733503,-0.399914 -1.466911,-0.799955 -2.2012,-1.200655 0.334034,-1.000191 0.667477,-2.000521 1.000545,-3.001638 -0.800048,-2.267743 -1.600333,-4.535218 -2.401309,-6.803711 0.46744,-1.133578 0.934321,-2.267432 1.400764,-3.401856 -0.866671,1.334537 -1.733793,2.668571 -2.601419,4.002184 0.667517,1.93483 1.334467,3.868983 2.001091,5.803165 -0.168153,1.07218 -0.336706,2.143347 -0.505863,3.214804 0.126926,1.379639 0.253266,2.75777 0.379205,4.136417 -1.190987,1.157277 -2.381873,2.313537 -3.573684,3.469774 -0.951485,0.14166 -1.903366,0.282861 -2.855698,0.423611"
       transform="matrix(-0.05209744,0.07164938,-0.06281894,-0.04803064,13.005578,8.6248348)"
       sodipodi:nodetypes="cccccccccccccccccccccccccccccccccccccccccccccccccccccccccccccccccccc" />
    <path
       class="dendrite "
       sodipodi:nodetypes="cccccccccccccccccccccccccccccccccccccccccccccccccccccccccccccccccccc"
       transform="matrix(-0.0085623,0.06212782,0.09900209,0.00295165,-0.1389336,5.3670933)"
       inkscape:original-d="m 54.345174,55.370934 c 0.962486,-1.047017 1.924501,-2.094499 2.886044,-3.142444 1.334352,2.65e-4 2.668387,2.65e-4 4.002183,0 0.06697,0.934125 0.13367,1.86795 0.20011,2.801527 -0.333259,0.600605 -0.666766,1.20092 -1.000546,1.800982 2.65e-4,0.800719 2.65e-4,1.601139 0,2.401311 0.467196,-0.533371 0.934106,-1.066985 1.400765,-1.600872 0.133673,-1.40053 0.267076,-2.801266 0.400217,-4.202293 0.667308,-0.266554 1.334325,-0.53336 2.001091,-0.800438 0.5339,0.267083 1.067515,0.533889 1.600875,0.800438 0.600604,0.667309 1.20092,1.334326 1.800982,2.001092 0.667308,0.734012 1.334325,1.467731 2.001091,2.201201 -0.133144,-0.733486 -0.266547,-1.467205 -0.400219,-2.201201 -0.266552,-0.333259 -0.533358,-0.666766 -0.800436,-1.000546 2.134806,-0.133146 6.403493,-0.400219 6.403493,-0.400219 0,0 -0.666766,-0.533361 -1.000546,-0.800436 -2.000866,-0.06644 -4.001918,-0.133141 -6.003274,-0.20011 -1.200414,-0.600075 -2.401046,-1.200391 -3.601966,-1.800982 -0.533371,-1.000302 -1.066982,-2.000826 -1.600872,-3.001637 1.734579,-0.933598 3.468823,-1.867421 5.202838,-2.80153 1.013633,-0.101635 2.026982,-0.203669 3.039821,-0.30608 1.955738,0.349366 3.911462,0.698407 5.866375,1.046983 0.802891,-0.187563 1.605562,-0.375554 2.407725,-0.563905 2.149708,-0.0951 4.2994,-0.190596 6.448213,-0.286464 0.883351,1.215496 1.766511,2.430867 2.649163,3.645675 1.657328,-0.523328 3.313475,-1.046794 4.970948,-1.571189 -0.268639,-0.200189 -0.537351,-0.400538 -0.806638,-0.60142 -1.467056,0.122074 -2.933977,0.243715 -4.4019,0.365018 -0.65505,-1.010021 -1.309795,-2.019372 -1.965975,-3.030736 -0.144225,-0.201822 -0.288725,-0.403884 -0.433508,-0.606197 1.093902,-0.716311 2.189071,-1.434092 3.282859,-2.151607 1.173533,0.540891 2.346839,1.081465 3.519829,1.621679 0.06791,-0.06617 0.135426,-0.132716 0.202581,-0.199673 -1.023821,-0.871026 -2.047494,-1.741989 -3.072153,-2.613857 -1.439892,0.3153 -2.879603,0.630087 -4.319868,0.944522 -0.910347,1.114827 -1.821091,2.229284 -2.732324,3.343481 -1.990071,0.03371 -3.979945,0.06702 -5.970865,0.09996 -1.336199,-0.211925 -2.672333,-0.424168 -4.009243,-0.636864 -0.223922,-0.09972 -0.448204,-0.199819 -0.672857,-0.300303 -1.934162,-0.199848 -3.868513,-0.399955 -5.803165,-0.600327 -1.400529,0.867421 -2.801265,1.734542 -4.202292,2.601418 -0.466667,-0.333256 -0.93358,-0.666766 -1.400765,-1.000546 1.644895,-2.23957 3.289255,-4.479521 4.933177,-6.719987 2.691824,-0.360981 5.382901,-0.722373 8.073917,-1.084268 0.867423,-1.000303 1.734545,-2.000827 2.60142,-3.00164 0.400492,-0.06644 0.800701,-0.133141 1.200656,-0.200107 1.000828,0.06697 2.001356,0.13367 3.001637,0.200107 0.200376,2.65e-4 0.600326,0 0.600326,0 l -2.401308,-1.400762 5.002728,-0.600329 c 0,0 -1.333796,-0.933577 -2.001091,-1.400763 -1.533938,-0.06644 -3.068077,-0.133141 -4.602512,-0.200109 -1.067006,1.334351 -2.134232,2.668386 -3.201746,4.002182 -1.800755,0.800717 -3.601701,1.601139 -5.402948,2.401311 -0.956771,0.09508 -1.913509,0.189663 -2.871078,0.283834 -1.110343,1.239966 -2.221088,2.479391 -3.332304,3.718349 -1.122569,0.754798 -2.245438,1.509023 -3.369028,2.262959 -0.09941,0.524565 -0.199251,1.048413 -0.299662,1.57223 -0.733503,-0.399914 -1.466911,-0.799955 -2.2012,-1.200655 0.334034,-1.000191 0.667477,-2.000521 1.000545,-3.001638 -0.800048,-2.267743 -1.600333,-4.535218 -2.401309,-6.803711 0.46744,-1.133578 0.934321,-2.267432 1.400764,-3.401856 -0.866671,1.334537 -1.733793,2.668571 -2.601419,4.002184 0.667517,1.93483 1.334467,3.868983 2.001091,5.803165 -0.168153,1.07218 -0.336706,2.143347 -0.505863,3.214804 0.126926,1.379639 0.253266,2.75777 0.379205,4.136417 -1.190987,1.157277 -2.381873,2.313537 -3.573684,3.469774 -0.951485,0.14166 -1.903366,0.282861 -2.855698,0.423611"
       inkscape:path-effect="#path-effect897-2-4"
       inkscape:connector-curvature="0"
       id="dendrite-5"
       d="m 54.345174,55.370934 c 0.961999,-1.047464 1.924014,-2.094946 3.072205,-2.618695 1.148191,-0.523749 2.482226,-0.523749 3.182486,-0.05668 0.700261,0.467072 0.766963,1.400896 0.633518,2.167892 -0.133445,0.766995 -0.466953,1.367309 -0.633685,2.067787 -0.166733,0.700478 -0.166733,1.500898 0.06673,1.634176 0.233457,0.133277 0.700369,-0.400335 1.000531,-1.367435 0.300162,-0.9671 0.433565,-2.367836 0.833869,-3.201773 0.400305,-0.833936 1.067321,-1.100743 1.667745,-1.100634 0.600423,1.1e-4 1.134037,0.266917 1.700986,0.733905 0.566949,0.466988 1.167264,1.134005 1.80095,1.834394 0.633686,0.700388 1.300703,1.434107 1.567415,1.434112 0.266713,5e-6 0.133309,-0.733714 -0.06671,-1.267347 -0.200023,-0.533633 -0.466829,-0.867141 0.467043,-1.100756 0.933872,-0.233616 3.068078,-0.367004 5.202576,-0.50041 -0.333515,-0.266812 -0.666741,-0.533392 -1.834072,-0.700262 -1.167331,-0.16687 -3.168383,-0.233572 -4.769246,-0.567018 -1.600863,-0.333446 -2.801495,-0.933762 -3.668715,-1.73413 -0.86722,-0.800369 -1.400832,-1.800892 -0.800524,-2.76828 0.600308,-0.967388 2.334552,-1.901212 3.70844,-2.419138 1.373887,-0.517926 2.387236,-0.61996 3.871574,-0.496426 1.484338,0.123533 3.440062,0.472575 4.818883,0.55301 1.378821,0.08044 2.181492,-0.107556 3.657471,-0.249255 1.47598,-0.141699 3.625672,-0.237199 5.14173,0.322841 1.516059,0.56004 2.399219,1.775411 3.669168,2.120895 1.269949,0.345485 2.926096,-0.177981 3.620612,-0.540075 0.694515,-0.362094 0.425803,-0.562442 -0.442411,-0.602022 -0.868214,-0.03958 -2.335135,0.08206 -3.396649,-0.362059 -1.061515,-0.44412 -1.71626,-1.453471 -2.116451,-2.060069 -0.400191,-0.606598 -0.544691,-0.80866 -0.07024,-1.26822 0.474447,-0.45956 1.569616,-1.177341 2.703463,-1.265517 1.133848,-0.08818 2.307154,0.452397 2.927372,0.689313 0.620218,0.236916 0.687734,0.170369 0.209608,-0.298446 -0.478125,-0.468816 -1.501798,-1.33978 -2.734139,-1.618271 -1.232341,-0.278491 -2.672052,0.0363 -3.847518,0.750982 -1.175467,0.714685 -2.086211,1.829142 -3.536656,2.40307 -1.450446,0.573928 -3.44032,0.607242 -5.10385,0.517784 -1.663531,-0.08946 -2.999665,-0.301701 -3.780066,-0.45784 -0.780401,-0.156138 -1.004682,-0.256238 -2.084119,-0.40643 -1.079436,-0.150192 -3.013787,-0.350297 -4.681485,-0.01681 -1.667698,0.333487 -3.068434,1.200609 -4.002167,1.467547 -0.933733,0.266939 -1.400647,-0.06657 -0.812075,-1.353415 0.588572,-1.286844 2.232932,-3.526795 4.401036,-4.827575 2.168105,-1.30078 4.859182,-1.662172 6.638294,-2.343142 1.779112,-0.680971 2.646233,-1.681495 3.280033,-2.215149 0.6338,-0.533654 1.034009,-0.600354 1.734434,-0.600327 0.700425,2.8e-5 1.700952,0.06673 2.301273,0.100071 0.60032,0.03334 0.800161,0.03334 1.00027,0.03334 0,0 -2.401308,-1.400762 -2.401308,-1.400762 0,0 5.002728,-0.600329 5.002728,-0.600329 -0.66703,-0.466921 -1.333759,-0.933631 -2.434388,-1.200543 -1.10063,-0.266912 -2.634769,-0.333614 -3.93564,0.300088 -1.300871,0.633702 -2.368098,1.967736 -3.802158,3.03495 -1.434059,1.067214 -3.235006,1.867635 -4.613968,2.315176 -1.378962,0.447541 -2.3357,0.542124 -3.369878,1.209216 -1.034178,0.667093 -2.144924,1.906517 -3.261749,2.903349 -1.116825,0.996833 -2.239694,1.751058 -2.85129,2.390522 -0.611596,0.639465 -0.71144,1.163313 -1.128083,1.225248 -0.416643,0.06193 -1.150051,-0.338106 -1.350503,-1.038578 -0.200452,-0.700472 0.132991,-1.700802 -0.100359,-3.335085 -0.233351,-1.634282 -1.033636,-3.901757 -1.200544,-5.602963 -0.166908,-1.701206 0.299973,-2.83506 0.09987,-2.735063 -0.2001,0.1 -1.067222,1.434032 -1.167152,3.068482 -0.09993,1.634451 0.567018,3.568604 0.816131,5.071691 0.249112,1.503086 0.08056,2.574253 0.0595,3.799864 -0.02107,1.225612 0.105275,2.603743 -0.427257,3.871448 -0.532532,1.267705 -1.723418,2.423964 -2.794874,3.072896 -1.071455,0.648932 -2.023336,0.790133 -2.975593,0.93139"
       style="fill:#808080;stroke:#000000;stroke-width:0.26458300000000001px" />
    <circle
       class="axon-terminal"
       r="0.20281547"
       cy="12.365875"
       cx="24.923504"
       id="path887"
       style="fill:#808080;stroke-width:0.264583" />
    <circle
       style="fill:#808080;stroke-width:0.264583"
       id="path887-7"
       cx="25.478136"
       cy="13.781627"
       r="0.20281547"
       class="axon-terminal" />
  </g>
</svg>
