<svg version="1.1" viewBox="0.0 0.0 960.0 540.0" fill="none" stroke="none" stroke-linecap="square" stroke-miterlimit="10" xmlns:xlink="http://www.w3.org/1999/xlink" xmlns="http://www.w3.org/2000/svg"><clipPath id="p.0"><path d="m0 0l960.0 0l0 540.0l-960.0 0l0 -540.0z" clip-rule="nonzero"/></clipPath><g clip-path="url(#p.0)"><path fill="#ffffff" d="m0 0l960.0 0l0 540.0l-960.0 0z" fill-rule="evenodd"/><defs><radialGradient id="p.1" gradientUnits="userSpaceOnUse" gradientTransform="matrix(9.046889838847028 0.0 0.0 9.046889838847028 0.0 0.0)" spreadMethod="pad" cx="37.68496849229165" cy="23.448263662592773" fx="37.68496849229165" fy="23.448263662592773" r="9.046890258789062"><stop offset="0.0" stop-color="#f2f2f2"/><stop offset="1.0" stop-color="#a6a6a6"/></radialGradient></defs><path fill="url(#p.1)" d="m283.05774 212.13387l0 0c0 -31.962936 25.911072 -57.874023 57.874023 -57.874023l0 0c15.349152 0 30.06961 6.0974274 40.923096 16.950912c10.853485 10.853485 16.950928 25.57396 16.950928 40.92311l0 0c0 31.962936 -25.911102 57.87401 -57.874023 57.87401l0 0c-31.962952 0 -57.874023 -25.911072 -57.874023 -57.87401z" fill-rule="evenodd"/><path fill="#000000" fill-opacity="0.0" d="m372.91602 258.43832c3.993866 3.2449646 11.982056 8.486877 23.963257 19.469818c11.981171 10.982941 35.193787 28.705597 47.92389 46.427826c12.730072 17.722198 19.720459 34.445312 28.456696 59.905487c8.736206 25.460205 19.967163 77.37973 23.960602 92.85565" fill-rule="evenodd"/><path stroke="#b7b7b7" stroke-width="8.0" stroke-linejoin="round" stroke-linecap="butt" d="m372.91602 258.43832c3.993866 3.2449646 11.982056 8.486877 23.963257 19.469818c11.981171 10.982941 35.193787 28.705597 47.92389 46.427826c12.730072 17.722198 19.720459 34.445312 28.456696 59.905487c8.736206 25.460205 19.967163 77.37973 23.960602 92.85565" fill-rule="evenodd"/><path fill="#000000" fill-opacity="0.0" d="m243.01228 220.85901l0 0c22.093094 2.339264 41.094864 15.270157 48.900375 33.27719c7.805542 18.00705 3.0372314 37.9122 -12.271057 51.22522l-41.82617 -35.352814z" fill-rule="evenodd"/><path fill="#000000" fill-opacity="0.0" d="m243.01228 220.85901l0 0c22.093094 2.339264 41.094864 15.270157 48.900375 33.27719c7.805542 18.00705 3.0372314 37.9122 -12.271057 51.22522" fill-rule="evenodd"/><path stroke="#595959" stroke-width="1.0" stroke-linejoin="round" stroke-linecap="butt" d="m243.01228 220.85901l0 0c22.093094 2.339264 41.094864 15.270157 48.900375 33.27719c7.805542 18.00705 3.0372314 37.9122 -12.271057 51.22522" fill-rule="evenodd"/><path fill="#000000" fill-opacity="0.0" d="m291.77512 136.78798l0 0c11.19455 19.185486 12.02533 42.15132 2.1380005 59.1019c-9.887329 16.950577 -28.747833 24.894363 -48.53691 20.4431l3.721756 -54.631607z" fill-rule="evenodd"/><path fill="#000000" fill-opacity="0.0" d="m291.77512 136.78798l0 0c11.19455 19.185486 12.02533 42.15132 2.1380005 59.1019c-9.887329 16.950577 -28.747833 24.894363 -48.53691 20.4431" fill-rule="evenodd"/><path stroke="#595959" stroke-width="1.0" stroke-linejoin="round" stroke-linecap="butt" d="m291.77512 136.78798l0 0c11.19455 19.185486 12.02533 42.15132 2.1380005 59.1019c-9.887329 16.950577 -28.747833 24.894363 -48.53691 20.4431" fill-rule="evenodd"/><path fill="#000000" fill-opacity="0.0" d="m378.67178 103.166084l0 0c-2.1820984 22.104828 -14.976257 41.196983 -32.925476 49.133186c-17.949219 7.9362183 -37.885834 3.3158875 -51.306335 -11.890289l35.05069 -42.077545z" fill-rule="evenodd"/><path fill="#000000" fill-opacity="0.0" d="m378.67178 103.166084l0 0c-2.1820984 22.104828 -14.976257 41.196983 -32.925476 49.133186c-17.949219 7.9362183 -37.885834 3.3158875 -51.306335 -11.890289" fill-rule="evenodd"/><path stroke="#595959" stroke-width="1.0" stroke-linejoin="round" stroke-linecap="butt" d="m378.67178 103.166084l0 0c-2.1820984 22.104828 -14.976257 41.196983 -32.925476 49.133186c-17.949219 7.9362183 -37.885834 3.3158875 -51.306335 -11.890289" fill-rule="evenodd"/></g></svg>