<?xml version="1.0" encoding="UTF-8" standalone="no"?>
<svg
   xmlns:osb="http://www.openswatchbook.org/uri/2009/osb"
   xmlns:dc="http://purl.org/dc/elements/1.1/"
   xmlns:cc="http://creativecommons.org/ns#"
   xmlns:rdf="http://www.w3.org/1999/02/22-rdf-syntax-ns#"
   xmlns:svg="http://www.w3.org/2000/svg"
   xmlns="http://www.w3.org/2000/svg"
   xmlns:xlink="http://www.w3.org/1999/xlink"
   xmlns:sodipodi="http://sodipodi.sourceforge.net/DTD/sodipodi-0.dtd"
   xmlns:inkscape="http://www.inkscape.org/namespaces/inkscape"
   width="210mm"
   height="297mm"
   viewBox="0 0 210 297"
   version="1.1"
   id="svg8"
   inkscape:version="1.0beta2 (2b71d25, 2019-12-03)"
   sodipodi:docname="neuron1.svg">
  <defs
     id="defs2">
    <inkscape:path-effect
       only_selected="false"
       apply_with_weight="true"
       apply_no_weight="true"
       helper_size="0"
       steps="3"
       weight="36.5333"
       lpeversion="1"
       is_visible="true"
       id="path-effect1161"
       effect="bspline" />
    <inkscape:path-effect
       only_selected="false"
       apply_with_weight="true"
       apply_no_weight="true"
       helper_size="0"
       steps="2"
       weight="50.9333"
       lpeversion="1"
       is_visible="true"
       id="path-effect1157"
       effect="bspline" />
    <inkscape:path-effect
       only_selected="false"
       apply_with_weight="true"
       apply_no_weight="true"
       helper_size="0"
       steps="2"
       weight="33.333333"
       lpeversion="1"
       is_visible="true"
       id="path-effect1085"
       effect="bspline" />
    <inkscape:path-effect
       only_selected="false"
       apply_with_weight="true"
       apply_no_weight="true"
       helper_size="0"
       steps="2"
       weight="33.333333"
       lpeversion="1"
       is_visible="true"
       id="path-effect968"
       effect="bspline" />
    <inkscape:path-effect
       only_selected="false"
       apply_with_weight="true"
       apply_no_weight="true"
       helper_size="0"
       steps="2"
       weight="33.333333"
       lpeversion="1"
       is_visible="true"
       id="path-effect952"
       effect="bspline" />
    <inkscape:path-effect
       only_selected="false"
       apply_with_weight="true"
       apply_no_weight="true"
       helper_size="0"
       steps="2"
       weight="33.333333"
       lpeversion="1"
       is_visible="true"
       id="path-effect948"
       effect="bspline" />
    <inkscape:path-effect
       only_selected="false"
       apply_with_weight="true"
       apply_no_weight="true"
       helper_size="0"
       steps="2"
       weight="33.333333"
       lpeversion="1"
       is_visible="true"
       id="path-effect944"
       effect="bspline" />
    <inkscape:path-effect
       only_selected="false"
       apply_with_weight="true"
       apply_no_weight="true"
       helper_size="0"
       steps="2"
       weight="33.333333"
       lpeversion="1"
       is_visible="true"
       id="path-effect940"
       effect="bspline" />
    <inkscape:path-effect
       only_selected="false"
       apply_with_weight="true"
       apply_no_weight="true"
       helper_size="0"
       steps="2"
       weight="33.333333"
       lpeversion="1"
       is_visible="true"
       id="path-effect936"
       effect="bspline" />
    <inkscape:path-effect
       only_selected="false"
       apply_with_weight="true"
       apply_no_weight="true"
       helper_size="0"
       steps="2"
       weight="33.333333"
       lpeversion="1"
       is_visible="true"
       id="path-effect932"
       effect="bspline" />
    <inkscape:path-effect
       only_selected="false"
       apply_with_weight="true"
       apply_no_weight="true"
       helper_size="0"
       steps="2"
       weight="33.333333"
       lpeversion="1"
       is_visible="true"
       id="path-effect928"
       effect="bspline" />
    <inkscape:path-effect
       only_selected="false"
       apply_with_weight="true"
       apply_no_weight="true"
       helper_size="0"
       steps="2"
       weight="33.333333"
       lpeversion="1"
       is_visible="true"
       id="path-effect924"
       effect="bspline" />
    <inkscape:path-effect
       only_selected="false"
       apply_with_weight="true"
       apply_no_weight="true"
       helper_size="0"
       steps="2"
       weight="33.333333"
       lpeversion="1"
       is_visible="true"
       id="path-effect920"
       effect="bspline" />
    <inkscape:path-effect
       only_selected="false"
       apply_with_weight="true"
       apply_no_weight="true"
       helper_size="0"
       steps="2"
       weight="33.333333"
       lpeversion="1"
       is_visible="true"
       id="path-effect916"
       effect="bspline" />
    <inkscape:path-effect
       only_selected="false"
       apply_with_weight="true"
       apply_no_weight="true"
       helper_size="0"
       steps="2"
       weight="33.333333"
       lpeversion="1"
       is_visible="true"
       id="path-effect912"
       effect="bspline" />
    <inkscape:path-effect
       only_selected="false"
       apply_with_weight="true"
       apply_no_weight="true"
       helper_size="0"
       steps="2"
       weight="33.333333"
       lpeversion="1"
       is_visible="true"
       id="path-effect908"
       effect="bspline" />
    <inkscape:path-effect
       only_selected="false"
       apply_with_weight="true"
       apply_no_weight="true"
       helper_size="0"
       steps="2"
       weight="33.333333"
       lpeversion="1"
       is_visible="true"
       id="path-effect904"
       effect="bspline" />
    <inkscape:path-effect
       only_selected="false"
       apply_with_weight="true"
       apply_no_weight="true"
       helper_size="0"
       steps="2"
       weight="33.333333"
       lpeversion="1"
       is_visible="true"
       id="path-effect900"
       effect="bspline" />
    <inkscape:path-effect
       fuse_tolerance="0"
       hide_knot="false"
       vertical_pattern="false"
       prop_units="false"
       tang_offset="0"
       normal_offset="0"
       spacing="0"
       scale_y_rel="false"
       prop_scale="1"
       copytype="single_stretched"
       pattern="M 0,5 C 0,2.24 2.24,0 5,0 7.76,0 10,2.24 10,5 10,7.76 7.76,10 5,10 2.24,10 0,7.76 0,5 Z"
       lpeversion="1"
       is_visible="true"
       id="path-effect896"
       effect="skeletal" />
    <inkscape:path-effect
       only_selected="false"
       apply_with_weight="true"
       apply_no_weight="true"
       helper_size="0"
       steps="2"
       weight="33.333333"
       lpeversion="1"
       is_visible="true"
       id="path-effect894"
       effect="bspline" />
    <inkscape:path-effect
       only_selected="false"
       apply_with_weight="true"
       apply_no_weight="true"
       helper_size="0"
       steps="2"
       weight="33.333333"
       lpeversion="1"
       is_visible="true"
       id="path-effect872"
       effect="bspline" />
    <inkscape:path-effect
       only_selected="false"
       apply_with_weight="true"
       apply_no_weight="true"
       helper_size="0"
       steps="2"
       weight="33.333333"
       lpeversion="1"
       is_visible="true"
       id="path-effect868"
       effect="bspline" />
    <linearGradient
       id="linearGradient858"
       inkscape:collect="always">
      <stop
         id="stop854"
         offset="0"
         style="stop-color:#f2f2f2;stop-opacity:1" />
      <stop
         style="stop-color:#f2f2f2;stop-opacity:1"
         offset="0.05"
         id="stop862" />
      <stop
         id="stop864"
         offset="0.52499998"
         style="stop-color:#e6e6e6;stop-opacity:1" />
      <stop
         id="stop856"
         offset="1"
         style="stop-color:#b3b3b3;stop-opacity:1" />
    </linearGradient>
    <linearGradient
       osb:paint="gradient"
       id="linearGradient903">
      <stop
         style="stop-color:#f2f2f2;stop-opacity:1;"
         offset="0"
         id="stop948" />
      <stop
         style="stop-color:#f2f2f2;stop-opacity:0;"
         offset="1"
         id="stop950" />
    </linearGradient>
    <linearGradient
       id="linearGradient903-5"
       osb:paint="gradient">
      <stop
         id="stop907"
         offset="0"
         style="stop-color:#f2f2f2;stop-opacity:1;" />
      <stop
         id="stop909"
         offset="1"
         style="stop-color:#f2f2f2;stop-opacity:0;" />
    </linearGradient>
    <inkscape:path-effect
       effect="bspline"
       id="path-effect16"
       is_visible="true"
       lpeversion="1"
       weight="33.333333"
       steps="2"
       helper_size="0"
       apply_no_weight="true"
       apply_with_weight="true"
       only_selected="false" />
    <radialGradient
       r="20"
       fy="54.767784"
       fx="102.60107"
       cy="54.767784"
       cx="102.60107"
       gradientTransform="matrix(1.1029095,0.39287885,-0.33556561,0.94201684,7.8195608,-37.134179)"
       gradientUnits="userSpaceOnUse"
       id="radialGradient850"
       xlink:href="#linearGradient903-5"
       inkscape:collect="always" />
    <radialGradient
       gradientTransform="matrix(0.33529835,0,0,0.33529833,-6.56282,58.088705)"
       gradientUnits="userSpaceOnUse"
       r="23.05084"
       fy="39.086208"
       fx="42.760979"
       cy="39.086208"
       cx="42.760979"
       id="radialGradient860"
       xlink:href="#linearGradient858"
       inkscape:collect="always" />
    <inkscape:path-effect
       effect="bspline"
       id="path-effect872-2"
       is_visible="true"
       lpeversion="1"
       weight="33.333333"
       steps="2"
       helper_size="0"
       apply_no_weight="true"
       apply_with_weight="true"
       only_selected="false" />
  </defs>
  <sodipodi:namedview
     inkscape:snap-bbox="false"
     inkscape:snap-global="false"
     id="base"
     pagecolor="#ffffff"
     bordercolor="#666666"
     borderopacity="1.0"
     inkscape:pageopacity="0.0"
     inkscape:pageshadow="2"
     inkscape:zoom="0.86438002"
     inkscape:cx="409.99566"
     inkscape:cy="378.45399"
     inkscape:document-units="mm"
     inkscape:current-layer="layer1"
     inkscape:document-rotation="0"
     showgrid="false"
     inkscape:window-width="1015"
     inkscape:window-height="880"
     inkscape:window-x="316"
     inkscape:window-y="62"
     inkscape:window-maximized="0" />
  <metadata
     id="metadata5">
    <rdf:RDF>
      <cc:Work
         rdf:about="">
        <dc:format>image/svg+xml</dc:format>
        <dc:type
           rdf:resource="http://purl.org/dc/dcmitype/StillImage" />
        <dc:title></dc:title>
      </cc:Work>
    </rdf:RDF>
  </metadata>
  <g
     inkscape:label="Layer 1"
     inkscape:groupmode="layer"
     id="layer1">
    <path
       transform="matrix(0.47959964,-0.18835514,0.18835514,0.47959964,-4.5340284,45.394368)"
       sodipodi:nodetypes="ccccccccccccccc"
       inkscape:original-d="m 88.52859,92.871503 c 0,0 -15.589532,-10.244459 -23.38491,-15.367227 -6.591949,6.289485 -19.776278,18.867313 -19.776278,18.867313 0,0 -1.113292,-17.593922 -1.670351,-26.391544 -8.997763,-0.832377 -26.993543,-2.497874 -26.993543,-2.497874 0,0 16.703606,-10.02174 25.055262,-15.033156 C 34.186626,44.98823 19.041999,30.066314 19.041999,30.066314 c 0,0 23.38494,4.89991 35.077365,7.349542 1.225214,-7.349426 3.674773,-22.048629 3.674773,-22.048629 0,0 10.022267,16.926314 15.033155,25.389331 7.127239,-6.458556 21.380493,-19.37607 21.380493,-19.37607 0,0 -8.40898,19.294743 -13.162323,30.200116 11.750281,1.278953 32.538388,3.540972 32.538388,3.540972 0,0 -22.465498,7.266279 -33.699208,10.899205 2.881677,8.950805 8.643948,26.850722 8.643948,26.850722 z"
       inkscape:path-effect="#path-effect868"
       inkscape:connector-curvature="0"
       id="path866"
       d="M 88.52859,92.871503 C 80.73362,87.749094 72.9391,82.626981 65.745286,83.210235 58.551472,83.79349 51.959495,90.082485 45.367402,96.371589 44.810618,87.574408 44.253864,78.777683 39.476587,73.962556 34.69931,69.14743 25.701356,68.314796 16.703508,67.482171 25.055262,62.471119 33.406927,57.46012 33.796778,51.224174 c 0.38985,-6.235946 -7.182522,-13.69696 -14.754779,-21.15786 11.692455,2.449847 23.384982,4.89971 29.84363,2.449888 6.458648,-2.449822 7.683584,-9.799432 8.908508,-17.148975 5.011052,8.46311 10.022187,16.926362 16.091165,17.92843 6.068978,1.002068 13.195652,-5.456479 20.322483,-11.915169 -4.387441,10.066705 -8.409299,19.294604 -4.910658,25.38672 3.498641,6.092117 13.440593,7.174044 24.286723,8.354368 -11.23307,3.633068 -22.4656,7.265963 -26.641647,13.558012 -4.176046,6.29205 -1.294929,15.241674 1.586387,24.191915 z"
       style="fill:#808080;fill-opacity:1;stroke:#000000;stroke-width:0.264583px;stroke-linecap:butt;stroke-linejoin:miter;stroke-opacity:1" />
    <path
       inkscape:path-effect="#path-effect872-2"
       inkscape:original-d="M 78.580749,103.13723 C 75.06242,98.780945 71.543895,94.424481 68.024965,90.067578 65.552459,80.654932 63.079838,71.24259 60.606803,61.829415 55.62972,56.444786 45.67506,45.67506 45.67506,45.67506 l -3.289009,2.460388 c 0,0 9.547771,10.64238 14.321404,15.963333 3.106233,9.085807 6.212013,18.170801 9.317717,27.256079 3.23746,4.562601 6.474459,9.12466 9.711388,13.68673 4.686229,2.70131 9.372001,5.40223 14.057607,8.10296 -0.01966,-0.26309 -0.03958,-0.52644 -0.05977,-0.79005 2.729646,1.14814 5.458979,2.29599 8.188158,3.44362 -0.08967,-0.31176 -0.269785,-0.93604 -0.269785,-0.93604 -8.853459,-5.27862 -13.962504,-8.50154 -19.072021,-11.72485 z"
       sodipodi:nodetypes="ccccccccccccc"
       transform="rotate(-17.178784,104.94573,63.58963)"
       style="fill:#666666;fill-opacity:1;stroke:none;stroke-width:0.264583px;stroke-linecap:butt;stroke-linejoin:miter;stroke-opacity:1"
       d="M 79.394653,102.54095 C 75.062389,98.78097 71.543864,94.424506 68.54807,87.539743 65.552277,80.65498 63.079656,71.242638 59.354682,63.843717 55.629709,56.444796 50.652308,51.059845 45.67506,45.67506 c 0,0 -3.289009,2.460388 -3.289009,2.460388 4.773801,5.321111 9.547756,10.642393 13.487619,17.845793 3.939862,7.2034 7.045642,16.288394 10.217277,23.112325 3.171634,6.823931 6.408633,11.385994 10.370262,15.017614 3.96163,3.63163 8.647397,6.33256 10.980227,7.55143 2.332829,1.21887 2.312905,0.95552 3.667784,1.39771 1.354879,0.44219 4.084212,1.59004 5.403853,2.00806 1.319641,0.41803 1.229625,0.10571 1.139697,-0.2063 -8.780204,-5.39778 -13.925854,-8.56116 -18.258117,-12.32113 z"
       id="path870-9"
       inkscape:connector-curvature="0" />
    <path
       sodipodi:nodetypes="cccccccccccccccccccccccccccccccccccccccccccccscccaccccccccccccccccc"
       inkscape:connector-curvature="0"
       d="m 130.47472,92.425365 c -2.07694,1.833679 -1.90988,5.216044 -0.6382,7.494633 -1.21666,0.773952 -1.01003,4.645212 -2.83424,2.103862 -1.69437,-1.38194 -4.27481,-1.87191 -3.91771,-4.545281 -2.69654,-1.515716 -1.79426,4.942281 1.0118,4.926781 2.27146,1.12565 4.80122,3.03232 4.08146,5.91144 0.42839,2.89203 -1.28521,5.4898 -3.43325,7.22976 -2.91898,1.21249 -6.29254,0.2713 -9.30277,-0.28222 -1.54362,0.0828 -5.4472,-1.66711 -5.60526,0.18511 2.83097,1.23649 6.06751,1.00451 8.93253,2.0904 2.61017,0.051 5.82561,2.23375 4.12069,5.15432 -1.16175,3.05297 -0.79873,6.58578 -2.46734,9.41878 -2.84998,3.54942 -7.17799,6.72407 -7.16437,11.73342 -0.12554,1.60344 1.05838,6.2975 3.0475,4.80058 -0.50136,-2.68062 -1.89431,-5.52915 -0.27869,-8.25507 1.24113,1.81212 1.99508,5.629 4.82403,6.42319 3.09202,-1.11504 -2.19635,-3.2241 -2.05458,-5.33054 -1.93694,-2.48069 -0.10966,-4.90248 1.83552,-6.56202 1.11816,-1.40527 2.29423,2.46785 3.57963,3.00271 2.40058,3.23398 1.15919,7.71257 3.03805,11.1463 0.49481,1.83255 6.36049,3.54215 3.91966,0.48342 -3.18153,-0.82769 -2.99232,-4.231 -3.31227,-6.8477 -0.32425,-2.94114 -1.40726,-5.86051 -3.7365,-7.80192 -3.20931,-2.1936 0.0863,-5.59028 -0.0676,-8.56833 0.92999,-1.89832 0.61013,-5.43288 1.61416,-6.58005 4.81539,4.72822 4.79758,12.00397 7.15064,17.95851 1.21472,2.42412 1.91713,5.79648 4.53118,7.03347 2.11603,-1.71335 -1.99216,-4.09847 -2.1068,-6.38291 -2.77496,-6.21639 -2.67022,-13.69253 -7.2979,-19.04925 -2.6343,-2.40111 2.61667,-0.33863 4.08971,-0.64104 3.33485,-0.20116 5.48625,2.61305 8.08469,4.17828 2.4611,1.58067 0.73703,5.03882 0.8161,7.44727 -0.6436,3.26386 -0.66246,7.06251 1.89432,9.56306 1.14257,2.29608 6.31295,-0.0917 3.05071,-1.19751 -3.10682,0.66608 -3.65895,-4.14906 -3.21088,-6.35008 0.49618,-1.81964 0.55211,-3.75679 1.19376,-4.98531 1.26012,3.26575 1.25035,5.54727 3.52447,8.84517 0.91932,1.55025 4.879,1.26715 2.50562,-0.7459 -3.18816,-1.4283 -2.00935,-5.94749 -3.31191,-8.63904 1.79692,-0.44489 3.67196,-0.0757 5.6811,0.74801 2.41556,0.2839 1.7806,5.52569 4.06708,3.87867 0.80463,-2.95914 -2.28899,-5.73457 -5.0046,-6.25314 -5.76593,-0.44004 -7.16174,-2.53162 -7.16174,-2.53162 -1.64485,-1.30556 -5.05184,-3.23983 -7.65462,-4.68446 -1.69665,-0.95434 2.83822,-1.14774 3.7519,-2.04355 2.70205,-1.02873 4.03241,-2.63188 6.85903,-1.93759 2.60096,0.63886 5.94615,3.82882 9.54344,3.72984 2.54508,0.21942 6.43441,-0.8981 6.67084,-3.81695 -1.89712,-1.41988 -3.84722,3.11316 -6.50301,1.83865 -3.30981,-0.0626 -4.31485,-1.89161 -6.19277,-3.28113 -0.92981,-0.68798 -1.16116,-1.25942 -2.45018,-2.4571 1.80741,-3.60196 5.7383,-4.36473 9.35103,-3.69732 1.45918,-0.0124 5.99931,3.02038 4.58826,-0.13748 -2.27131,-2.02004 -5.61921,-2.01203 -8.49974,-2.08979 -1.80158,-0.48926 -2.1051,0.10538 -4.13232,-0.34789 2.07879,-4.084138 4.51089,-4.454065 7.70187,-5.408322 2.95533,-0.227708 2.09575,-4.060282 -0.6406,-2.695998 -2.48128,1.444755 -5.52674,2.028497 -7.62155,4.055428 -1.79671,2.464792 -1.88326,5.775872 -3.65206,8.259332 -0.6239,3.29772 -3.23815,5.03778 -6.11924,6.07791 -3.62591,1.67561 -7.72785,1.97779 -11.66498,2.13483 0.87046,-1.72777 3.1913,-4.8515 2.73341,-7.75203 0.17742,-2.71583 -1.07037,-6.51866 2.12326,-7.90481 1.3566,-2.401015 6.23365,1.75929 5.65662,-1.489967 -1.82515,-1.839937 -4.82472,-1.363893 -6.64499,-0.456907 -1.92849,-1.920885 1.50586,-4.820139 -0.89142,-6.102911 z"
       style="color:#000000;font-style:normal;font-variant:normal;font-weight:normal;font-stretch:normal;font-size:medium;line-height:normal;font-family:sans-serif;font-variant-ligatures:normal;font-variant-position:normal;font-variant-caps:normal;font-variant-numeric:normal;font-variant-alternates:normal;font-variant-east-asian:normal;font-feature-settings:normal;font-variation-settings:normal;text-indent:0;text-align:start;text-decoration:none;text-decoration-line:none;text-decoration-style:solid;text-decoration-color:#000000;letter-spacing:normal;word-spacing:normal;text-transform:none;writing-mode:lr-tb;direction:ltr;text-orientation:mixed;dominant-baseline:auto;baseline-shift:baseline;text-anchor:start;white-space:normal;shape-padding:0;shape-margin:0;inline-size:0;clip-rule:nonzero;display:inline;overflow:visible;visibility:visible;opacity:1;isolation:auto;mix-blend-mode:normal;color-interpolation:sRGB;color-interpolation-filters:linearRGB;solid-color:#000000;solid-opacity:1;vector-effect:none;fill:#666666;fill-opacity:1;fill-rule:nonzero;stroke:none;stroke-width:2;stroke-linecap:round;stroke-linejoin:miter;stroke-miterlimit:4;stroke-dasharray:none;stroke-dashoffset:0;stroke-opacity:1;color-rendering:auto;image-rendering:auto;shape-rendering:auto;text-rendering:auto;enable-background:accumulate;stop-color:#000000;stop-opacity:1"
       id="path1137" />
    <ellipse
       transform="rotate(-48.657014)"
       ry="6.4995174"
       rx="4.6663203"
       cy="91.033684"
       cx="-19.203339"
       id="path954"
       style="fill:#bcbcbc;fill-opacity:0.615385;stroke:#000000;stroke-width:0.2;stroke-linecap:round;stroke-miterlimit:4;stroke-dasharray:none;stroke-opacity:1" />
    <ellipse
       style="fill:#f2f2f2;fill-opacity:0.348178;stroke:none;stroke-width:0.134635;stroke-linecap:round;stroke-miterlimit:4;stroke-dasharray:none;stroke-opacity:1"
       id="path954-0"
       cx="-17.383945"
       cy="90.240051"
       rx="3.1412468"
       ry="4.4487734"
       transform="rotate(-48.657014)" />
    <ellipse
       style="fill:#b3b3b3;fill-opacity:0.360324;stroke:#000000;stroke-width:0.2;stroke-linecap:round;stroke-miterlimit:4;stroke-dasharray:none;stroke-opacity:1"
       id="path954-2"
       cx="-10.775589"
       cy="104.97521"
       rx="4.6663203"
       ry="6.4995174"
       transform="rotate(-43.681207)" />
    <ellipse
       transform="rotate(-43.681207)"
       ry="4.4487734"
       rx="3.1412468"
       cy="104.18158"
       cx="-8.9561958"
       id="path954-0-5"
       style="fill:#bcbcbc;fill-opacity:0.615385;stroke:none;stroke-width:0.134635;stroke-linecap:round;stroke-miterlimit:4;stroke-dasharray:none;stroke-opacity:1" />
    <ellipse
       style="fill:#bcbcbc;fill-opacity:0.615385;stroke:#000000;stroke-width:0.187437;stroke-linecap:round;stroke-miterlimit:4;stroke-dasharray:none;stroke-opacity:1"
       id="path954-6"
       cx="3.6798909"
       cy="117.74945"
       rx="4.3732071"
       ry="5.8169127"
       transform="rotate(-36.007198)" />
    <ellipse
       transform="rotate(-36.007198)"
       ry="4.1693254"
       rx="2.9439306"
       cy="117.00567"
       cx="5.3849993"
       id="path954-0-6"
       style="fill:#f2f2f2;fill-opacity:0.348178;stroke:none;stroke-width:0.126178;stroke-linecap:round;stroke-miterlimit:4;stroke-dasharray:none;stroke-opacity:1" />
    <ellipse
       transform="rotate(-46.998482)"
       ry="6.0912528"
       rx="4.3732071"
       cy="127.57975"
       cx="-20.128759"
       id="path954-6-6"
       style="fill:#bcbcbc;fill-opacity:0.615385;stroke:#000000;stroke-width:0.187437;stroke-linecap:round;stroke-miterlimit:4;stroke-dasharray:none;stroke-opacity:1" />
    <ellipse
       style="fill:#f2f2f2;fill-opacity:0.348178;stroke:none;stroke-width:0.126178;stroke-linecap:round;stroke-miterlimit:4;stroke-dasharray:none;stroke-opacity:1"
       id="path954-0-6-3"
       cx="-18.423651"
       cy="126.83598"
       rx="2.9439306"
       ry="4.1693254"
       transform="rotate(-46.998482)" />
    <ellipse
       style="fill:#bcbcbc;fill-opacity:0.615385;stroke:#000000;stroke-width:0.166035;stroke-linecap:round;stroke-miterlimit:4;stroke-dasharray:none;stroke-opacity:1"
       id="path954-6-6-3"
       cx="-47.076092"
       cy="131.82471"
       rx="3.8738658"
       ry="5.3957419"
       transform="rotate(-58.941956)" />
    <ellipse
       transform="rotate(-58.941956)"
       ry="3.6932638"
       rx="2.6077869"
       cy="131.16585"
       cx="-45.565674"
       id="path954-0-6-3-4"
       style="fill:#f2f2f2;fill-opacity:0.348178;stroke:none;stroke-width:0.111771;stroke-linecap:round;stroke-miterlimit:4;stroke-dasharray:none;stroke-opacity:1" />
    <ellipse
       inkscape:transform-center-y="0.23797917"
       inkscape:transform-center-x="0.58269231"
       transform="rotate(-73.459573)"
       ry="4.795207"
       rx="3.4427123"
       cy="126.09981"
       cx="-79.617363"
       id="path954-6-6-3-9"
       style="fill:#bcbcbc;fill-opacity:0.615385;stroke:#000000;stroke-width:0.147556;stroke-linecap:round;stroke-miterlimit:4;stroke-dasharray:none;stroke-opacity:1" />
    <ellipse
       inkscape:transform-center-y="-1.2154846"
       inkscape:transform-center-x="0.76184198"
       style="fill:#f2f2f2;fill-opacity:0.348178;stroke:none;stroke-width:0.0993311;stroke-linecap:round;stroke-miterlimit:4;stroke-dasharray:none;stroke-opacity:1"
       id="path954-0-6-3-4-4"
       cx="-78.275047"
       cy="125.51428"
       rx="2.3175454"
       ry="3.2822108"
       transform="rotate(-73.459573)" />
    <ellipse
       style="fill:#bcbcbc;fill-opacity:0.615385;stroke:#000000;stroke-width:0.143205;stroke-linecap:round;stroke-miterlimit:4;stroke-dasharray:none;stroke-opacity:1"
       id="path954-6-6-3-9-3"
       cx="-90.44162"
       cy="128.3213"
       rx="3.3411906"
       ry="4.6538014"
       transform="rotate(-78.350366)" />
    <path
       inkscape:connector-curvature="0"
       d="m 107.57611,110.89654 c 1.52728,0.18868 3.43927,1.8825 2.38684,3.47571 -1.62328,1.93043 -5.6544,1.0164 -5.9936,-1.57313 0.0387,-1.73566 2.23439,-2.23056 3.60676,-1.90258 z"
       style="fill:#f2f2f2;fill-opacity:0.348178;stroke:none;stroke-width:0.096402;stroke-linecap:round;stroke-miterlimit:4;stroke-dasharray:none;stroke-opacity:1"
       id="path954-0-6-3-4-4-2" />
    <path
       transform="rotate(-17.178784,114.73471,73.246849)"
       inkscape:original-d="m 51.842775,46.621199 c -1.553776,0.870527 -3.107817,1.740789 -4.662119,2.61079 -2.424087,2.64e-4 -4.848342,2.64e-4 -7.272909,0 -2.610575,-1.864622 -5.221309,-3.729432 -7.83236,-5.594546 -0.310552,-2.299761 -0.621353,-4.599694 -0.932426,-6.899937 0.497567,-1.678133 0.994852,-3.356461 1.491879,-5.035089 1.927313,-1.242994 3.854284,-2.4862 5.78103,-3.729696 2.113801,0.248914 4.227253,0.497557 6.340483,0.745939 1.616498,0.559729 3.232668,1.119172 4.848603,1.678364 0.311078,1.057031 0.621882,2.113759 0.932426,3.17024 1.305684,1.367848 2.611051,2.735376 3.91618,4.102666 -0.248386,1.740823 -0.497028,3.481313 -0.74594,5.221573 -0.621363,1.243523 -1.242968,2.486729 -1.864847,3.729696 z"
       inkscape:path-effect="#path-effect1085"
       inkscape:connector-curvature="0"
       id="path1083"
       d="m 51.37658,46.434743 c -1.087756,1.05667 -2.641796,1.926933 -4.630904,2.36209 -1.989107,0.435156 -4.413362,0.435156 -6.930915,-0.49718 -2.517553,-0.932336 -5.128287,-2.797147 -6.589218,-4.879544 -1.460931,-2.082397 -1.771734,-4.38233 -1.678532,-6.371579 0.0932,-1.98925 0.590485,-3.667579 1.802715,-5.128496 1.21223,-1.460917 3.1392,-2.704124 5.159586,-3.201376 2.020386,-0.497251 4.133838,-0.24861 5.998715,0.155484 1.864877,0.404094 3.481047,0.963538 4.444441,1.77175 0.963395,0.808213 1.274198,1.864941 2.082395,3.077084 0.808197,1.212142 2.113564,2.57967 2.64179,4.133702 0.528226,1.554033 0.279584,3.294523 -0.155564,4.786356 -0.435149,1.491833 -1.056752,2.73504 -2.144509,3.791709 z"
       style="fill:#999999;fill-opacity:1;stroke:none;stroke-width:0.264583px;stroke-linecap:butt;stroke-linejoin:miter;stroke-opacity:1" />
    <circle
       transform="rotate(-24.076514)"
       r="7.728909"
       cy="71.194252"
       cx="7.774869"
       id="path852"
       style="fill:url(#radialGradient860);fill-opacity:1;stroke-width:0.0887138" />
  </g>
</svg>
